<?xml version="1.0" standalone="no"?>
<!DOCTYPE svg PUBLIC "-//W3C//DTD SVG 1.1//EN" "http://www.w3.org/Graphics/SVG/1.1/DTD/svg11.dtd" >
<svg xmlns="http://www.w3.org/2000/svg">
<metadata>Generated by IcoMoon</metadata>
<defs>
<font id="icons" horiz-adv-x="512">
<font-face units-per-em="512" ascent="480" descent="-32" />
<missing-glyph horiz-adv-x="512" />
<glyph unicode="&#x20;" d="" horiz-adv-x="256" />
<glyph unicode="&#x22;" d="M148.211 143.187l-21.3 21.298 129.623 129.624 128.565-128.585-21.301-21.296-107.264 107.282z" />
<glyph unicode="&#x25;" d="M343.516 398.265c26.87 0 51.147-11.333 68.185-29.472 21.24 4.186 41.24 11.963 59.295 22.648-7-21.796-21.777-40.092-41.073-51.647 18.889 2.25 36.888 7.259 53.629 14.694-12.519-18.723-28.333-35.166-46.592-48.323 0.185-4.010 0.296-8.037 0.296-12.074 0-123.396-93.961-265.69-265.662-265.69-52.759 0-101.851 15.481-143.146 41.981 7.297-0.871 14.723-1.315 22.277-1.315 43.76 0 83.999 14.926 115.943 39.963-40.833 0.74-75.332 27.74-87.221 64.851 5.722-1.111 11.555-1.667 17.592-1.667 8.481 0 16.74 1.111 24.574 3.26-42.686 8.573-74.889 46.323-74.889 91.563 0 0.389 0 0.777 0 1.166 12.574-7 27-11.185 42.314-11.666-25.073 16.74-41.555 45.313-41.555 77.702 0 17.111 4.593 33.147 12.666 46.943 46.019-56.499 114.851-93.665 192.442-97.554-1.592 6.833-2.426 13.963-2.426 21.277 0.001 51.555 41.796 93.36 93.351 93.36zM343.516 426.709c-63.48 0-115.776-48.823-121.312-110.896-54.61 10.296-104.442 39.676-139.998 83.332-5.426 6.657-13.537 10.481-22.056 10.481-0.722 0-1.463-0.027-2.185-0.083-9.296-0.723-17.647-5.944-22.37-13.991-10.833-18.518-16.555-39.721-16.555-61.313 0-15.647 2.98-30.87 8.573-44.972-5.87-5.333-9.333-12.953-9.333-21.064v-1.166c0-32.352 12.852-62.314 34.092-84.453-1.796-5.555-1.852-11.629-0.018-17.407 8.055-25.11 23.758-46.239 44.055-61.109-14.63-4.334-29.963-6.556-45.686-6.556-6.352 0-12.703 0.37-18.869 1.111-1.148 0.147-2.297 0.203-3.426 0.203-11.871 0-22.648-7.426-26.741-18.814-4.5-12.481 0.241-26.389 11.389-33.573 47.37-30.407 102.184-46.48 158.516-46.48 86.257 0 163.867 34.185 218.551 96.221 47.647 54.036 75.129 125.507 75.555 196.302 15.926 13.277 29.833 28.769 41.499 46.203 7.037 10.519 6.277 24.435-1.889 34.12-2.37 2.824-5.203 5.083-8.314 6.75 0.37 1.056 0.74 2.12 1.074 3.194 3.629 11.25-0.093 23.555-9.334 30.925-5.147 4.121-11.443 6.213-17.74 6.213-5 0-10-1.306-14.48-3.963-11.63-6.879-23.945-12.213-36.797-15.935-21.48 17.137-48.443 26.72-76.201 26.72v0z" />
<glyph unicode="&#x26;" d="M466.824 326.259h-30.118v90.383c0 24.912-20.274 45.177-45.177 45.177h-271.058c-24.902 0-45.177-20.265-45.177-45.177v-90.382h-30.118c-24.902-0.001-45.176-20.265-45.176-45.177v-271.059c0-24.902 20.274-45.177 45.176-45.177h421.648c24.901 0 45.176 20.274 45.176 45.177v271.059c0 24.912-20.274 45.176-45.176 45.176zM481.883 281.083v-270.588l-132.549 140.783 132.098 132.040c0.117-0.764 0.451-1.441 0.451-2.235zM436.706 296.142h14.96l-14.96-14.96v14.96zM105.412 416.642c0 8.304 6.764 15.059 15.059 15.059h271.059c8.295 0 15.059-6.755 15.059-15.059v-165.529l-118.648-118.618c-16.98-16.98-46.902-16.98-63.883 0l-118.646 118.667v165.48zM159.607 154.357l-129.49-137.548v264.274c0 0.824 0.334 1.529 0.471 2.324l129.019-129.050zM75.294 296.142v-14.853l-14.843 14.853h14.843zM50.902-5.034l130.020 138.078 21.843-21.844c0.039-0.039 0.079-0.059 0.118-0.078l7-7.020c12.293-12.274 28.686-19.059 46.137-19.059 17.471 0 33.863 6.784 46.137 19.059l25.863 25.863 127.137-135h-404.255zM154.354 376.995h203.293v-30.118h-203.293v30.118zM154.354 292.289h203.293v-30.118h-203.293v30.118z" />
<glyph unicode="&#x27;" d="M156.458 140.041l-31.029 31.026 131.087 131.087 130.056-130.087-31.029-31.026-99.027 99.057z" />
<glyph unicode="&#x28;" d="M390.742 44.17c29.469 0 53.447 23.96 53.447 53.448 0 29.449-23.979 53.408-53.447 53.408-24.215 0-44.449-16.273-50.997-38.351h-124.718v-15.058c0-50.997-41.469-92.466-92.446-92.466s-92.466 41.469-92.466 92.466c0 50.958 41.488 92.426 92.466 92.426v30.116c-67.585 0.001-122.581-54.976-122.581-122.541 0-67.604 54.996-122.582 122.581-122.582 62.487 0 114.189 46.998 121.64 107.523h95.524c6.548-22.116 26.782-38.389 50.997-38.389zM390.742 120.911c12.861 0 23.332-10.451 23.332-23.293 0-12.862-10.471-23.332-23.332-23.332-12.862 0-23.312 10.47-23.312 23.332 0 12.842 10.45 23.293 23.312 23.293zM183.264 231.346l-47.82-82.868c-22.215 4.843-47.057-4.745-58.664-24.822-7.137-12.371-9.019-26.782-5.312-40.546 3.686-13.804 12.548-25.312 24.9-32.43 8.117-4.706 17.332-7.196 26.685-7.196 19.058 0 36.802 10.255 46.312 26.725 12.097 20.939 8.137 46.645-7.745 63.368l62.368 107.984-13.058 7.539c-21.391 12.352-36.685 32.282-43.075 56.144-6.393 23.852-3.118 48.772 9.234 70.163 25.508 44.164 82.152 59.301 126.307 33.841 44.135-25.499 59.311-82.152 33.821-126.296l26.077-15.058c33.802 58.516 13.686 133.629-44.841 167.431-58.546 33.773-133.64 13.646-167.441-44.86-16.372-28.352-20.724-61.389-12.254-93.014 7.155-26.725 22.742-49.734 44.506-66.105zM143.285 85.266c-6.176-10.705-21.018-14.803-31.841-8.509-5.411 3.098-9.294 8.137-10.901 14.155-1.607 6.020-0.784 12.294 2.314 17.686 4.156 7.176 11.92 11.666 20.253 11.666 4.059 0 8.098-1.078 11.627-3.137 11.137-6.451 14.98-20.725 8.548-31.861zM495.52 158.791c-16.371 28.351-42.801 48.634-74.426 57.104-26.686 7.157-54.448 5.176-79.506-5.51l-47.762 82.691c6.098 6.382 10.725 14.068 13.078 22.832 3.686 13.774 1.783 28.175-5.354 40.557-14.156 24.577-48.35 33.792-72.996 19.548-12.352-7.137-21.194-18.656-24.9-32.439-3.686-13.793-1.783-28.194 5.354-40.537 9.489-16.499 27.233-26.744 46.291-26.744 4.215 0 8.411 0.667 12.489 1.647l62.29-107.916 13.059 7.549c21.371 12.312 46.232 15.646 70.172 9.234 23.842-6.392 43.782-21.704 56.135-43.076 12.352-21.41 15.627-46.311 9.234-70.152-6.392-23.861-21.685-43.802-43.076-56.153-44.115-25.489-100.816-10.274-126.306 33.86l-26.077-15.077c22.705-39.272 63.996-61.252 106.387-61.252 20.782 0 41.82 5.294 61.055 16.392 28.352 16.371 48.645 42.802 57.114 74.427s4.117 64.663-12.255 93.015zM235.084 318.096c-3.117 5.382-3.94 11.666-2.333 17.685 1.608 6.009 5.47 11.039 10.862 14.156 3.549 2.049 7.588 3.137 11.646 3.137 8.312 0 16.058-4.47 20.215-11.656 3.117-5.411 3.94-11.705 2.332-17.724-1.607-6.010-5.47-11.039-10.881-14.156-10.802-6.226-25.645-2.187-31.841 8.558z" />
<glyph unicode="&#x29;" d="M256-42.667c-141.157 0-256 114.822-256 256 0 141.137 114.843 256 256 256s256-114.863 256-256c0-141.178-114.843-256-256-256zM256 439.215c-124.549 0-225.882-101.333-225.882-225.882s101.333-225.883 225.882-225.883 225.883 101.333 225.883 225.883c0 124.549-101.334 225.882-225.883 225.882zM271.020 54.234h-30.118v30.119l30.118 1.881zM271.020 118.353h-30.117v64h15.059c37.373 0 67.765 30.392 67.765 67.764 0 37.354-30.392 67.766-67.765 67.766s-67.765-30.412-67.765-67.766c0-9.451 1.882-18.549 5.607-27.039l-27.607-12.078c-5.393 12.334-8.118 25.471-8.118 39.117 0 53.961 43.902 97.883 97.882 97.883s97.883-43.922 97.883-97.883c0-48.862-35.98-89.471-82.824-96.744v-35.020z" />
<glyph unicode="&#x2a;" d="M381.186 110.961c-40.111 0-74.741 23.11-91.52 56.739h-47.296l-39.537 39.52-39.537-39.52h-9.148l-39.537 39.52-39.537-39.52h-2.333l-44.296 42.186 44.296 42.187h213.741c15.26 37.315 51.889 63.629 94.703 63.629 56.536 0 102.37-45.853 102.37-102.37s-45.833-102.371-102.369-102.371zM381.186 82.517c72.13 0 130.814 58.685 130.814 130.814s-58.685 130.814-130.815 130.816c-46.667 0-88.87-24.426-112.223-63.631h-196.222c-7.296 0-14.333-2.795-19.611-7.832l-44.296-42.195c-5.647-5.371-8.833-12.815-8.833-20.601s3.186-15.232 8.833-20.604l44.298-42.184c5.278-5.037 12.315-7.844 19.611-7.844h2.333c7.537 0 14.778 3 20.111 8.324l19.426 19.417 19.426-19.417c5.333-5.324 12.574-8.324 20.111-8.324h9.148c7.537 0 14.778 3 20.111 8.324l19.426 19.417 19.426-19.417c5.333-5.324 12.574-8.324 20.111-8.324h31.092c24.185-35.387 64.019-56.739 107.723-56.739v0zM380.333 182.924c16.815 0 30.445 13.593 30.445 30.407s-13.63 30.407-30.445 30.407c-16.777 0-30.406-13.593-30.406-30.407s13.629-30.407 30.406-30.407v0z" />
<glyph unicode="&#x2b;" d="M165.258-42.667v93.312h-88.717c-41.223 0-74.774 33.551-74.774 74.774v269.141c0 41.232 33.551 74.773 74.774 74.773h358.917c41.225 0 74.775-33.541 74.775-74.773v-269.14c0-41.224-33.551-74.774-74.775-74.774h-109.045l-161.155-93.313zM76.541 439.424c-24.729 0-44.864-20.125-44.864-44.864v-269.14c0-24.749 20.135-44.864 44.864-44.864h118.627v-71.348l123.222 71.348h117.068c24.73 0 44.865 20.115 44.865 44.864v269.14c0 24.739-20.135 44.864-44.865 44.864h-358.917z" />
<glyph unicode="&#x2c;" d="M298.271 82.761l-131.085 131.086 130.085 130.057 31.043-31.028-99.071-99.029 100.043-100.057z" />
<glyph unicode="&#x2d;" d="M432.969 469.333h-307.188c-52.25 0-94.75-42.5-94.75-94.719v-322.531c0-52.25 42.5-94.75 94.75-94.75h355.188v512h-48zM79.031 321.145v53.469c0 25.75 20.969 46.719 46.75 46.719h307.188v-309.063h-307.188c-25.781 0-46.75 20.938-46.75 46.75v162.125zM432.969 5.333h-307.188c-25.781 0-46.75 20.969-46.75 46.75v25.031c13.844-7.938 29.656-12.844 46.75-12.844h307.188v-58.937zM154.125 361.833h212v-48h-212v48zM154.125 275.021h212v-48h-212v48z" />
<glyph unicode="&#x2e;" d="M214.729 82.755l-31.029 31.028 99.057 99.043-100.057 100.057 31.029 31.029 131.1-131.086z" />
<glyph unicode="&#x2f;" d="M255.486 124.532l-130.057 130.072 31.028 31.029 99.029-99.058 100.057 100.058 31.029-31.029z" />
<glyph unicode="&#x30;" d="M256-42.667c-141.171 0-256 114.857-256 256 0 141.172 114.829 256 256 256s256-114.828 256-256c0-141.143-114.829-256-256-256zM256 425.447c-116.971 0-212.114-95.142-212.114-212.114 0-116.943 95.143-212.114 212.114-212.114s212.114 95.171 212.114 212.114c0 116.972-95.142 212.114-212.114 212.114zM277.886 55.333h-43.886v43.886l43.886 1.829zM277.886 135.876h-43.886v69.457h21.943c32.257 0 58.514 26.258 58.514 58.514 0 32.287-26.257 58.516-58.514 58.516s-58.514-26.229-58.514-58.516c0-8.171 1.628-16.027 4.8-23.371l-40.229-17.486c-5.6 12.856-8.457 26.628-8.457 40.856 0 56.458 45.943 102.4 102.4 102.4s102.4-45.942 102.4-102.4c0-48.914-34.515-89.942-80.457-100v-27.97z" />
<glyph unicode="&#x31;" d="M432.496 106.863v23.285c0 10.113-6.369 18.647-15.307 22.049 13.514 9.277 15.307 21.585 15.307 27.059v24.506c0 9.695-5.844 17.982-14.193 21.678 12.461 9.185 14.193 20.904 14.193 26.223v66.208h-0.494c0.061 0.51 0.186 1.268 0.186 1.7 0.031 6.386-2.258 22.234-23.502 31.372l-121.098 51.997c-11.271 4.854-23.393 5.875-31.588 5.875s-20.316-1.021-31.588-5.875l-121.097-51.998c-21.26-9.138-23.532-24.986-23.532-31.372 0-0.433 0.154-1.19 0.186-1.7h-0.48v-65.806c0-5.304 1.81-17.008 14.767-26.362-8.659-3.556-14.767-12.014-14.767-21.94v-24.104c0-5.475 1.871-17.812 16.050-27.307-9.276-3.246-16.050-11.812-16.050-22.203v-22.914c0-6.432 2.412-22.512 24.832-32.099l119.674-51.209c9.339-4.020 21.059-6.061 32.748-6.061 11.627 0 23.239 1.979 32.485 5.968l119.334 51.116c21.616 9.279 23.934 25.421 23.934 31.914zM125.549 210.844l98.445-42.133c9.339-4.021 21.059-6 32.748-6 11.627 0 23.239 1.979 32.485 5.938l97.102 41.607c-0.619-2.103-1.33-4.189-1.33-6.494v-14.797l-114.479-49.074c-6.742-2.846-20.998-2.846-27.801 0.061l-115.731 49.617v14.193c-0.001 2.521-0.713 4.808-1.439 7.082zM126.987 278.056l97.425-41.854c11.287-4.84 23.408-5.845 31.588-5.845s20.301 1.005 31.588 5.859l97.41 41.84v-16.684l-114.479-49.060c-6.742-2.891-20.998-2.829-27.801 0.062l-115.731 49.602v16.080zM243.166 359.308c4.516 1.948 21.137 1.948 25.684 0l92.461-39.737-92.461-39.705c-4.516-1.948-21.184-1.934-25.698-0.016l-92.462 39.736 92.476 39.722zM384.998 116.573l-114.478-49.075c-6.742-2.876-20.998-2.814-27.801 0.062l-115.731 49.602v12.987c0 3-0.696 5.783-1.7 8.412l98.707-42.242c9.339-4.020 21.059-6.029 32.748-6.029 11.627 0 23.239 1.979 32.485 5.937l97.379 41.747c-0.865-2.474-1.607-5.071-1.607-7.824v-13.577zM56.203 78.909v88.132c0 16.203-5.628 33.305-15.245 46.292 9.617 12.987 15.245 30.089 15.245 46.292v88.147c0 23.533 5.675 27.445 12.834 32.377 3.416 2.258 16.203 4.422 26.3 4.469l-0.046 47.498c-8.087 0-35.825-0.928-53.158-12.833-17.363-11.936-33.428-28.867-33.428-71.511v-88.147c0-10.56-8.782-19.389-8.705-20.316v-51.441c2.598-1.438 8.705-10.266 8.705-20.826v-88.132c0-42.675 16.064-59.59 33.443-71.558 17.317-11.874 45.056-12.802 53.143-12.802l0.046 47.498c-10.097 0.062-22.884 2.227-26.27 4.453-7.189 4.948-12.864 8.844-12.864 32.408zM503.311 259.625v88.147c0 42.644-16.080 59.574-33.459 71.526-17.316 11.89-45.055 12.817-53.127 12.817l-0.061-47.498c10.080-0.047 22.883-2.211 26.285-4.453 7.174-4.947 12.863-8.859 12.863-32.393v-88.147c0-16.203 5.629-33.305 15.215-46.292-9.586-12.987-15.215-30.089-15.215-46.292v-88.132c0-23.564-5.689-27.46-12.863-32.408-3.402-2.227-16.205-4.391-26.285-4.453l0.061-47.498c8.072 0 35.811 0.928 53.127 12.833 17.379 11.937 33.459 28.852 33.459 71.526v88.132c0 10.561 8.781 19.389 8.689 20.316v51.441c-2.598 1.439-8.689 10.268-8.689 20.828z" />
<glyph unicode="&#x32;" d="M86.047 318.969h-0.396v-66.5c0-4.928 1.969-17.24 20.25-25.115l120.927-51.771c8.531-3.646 19.219-5.479 29.896-5.479 10.636 0 21.25 1.812 29.709 5.438l120.562 51.656c16.833 7.229 19.375 18.688 19.375 24.865v66.906h-0.417c0.062 0.625 0.104 1.229 0.104 1.719 0.021 4.875-1.834 17-18.938 24.344l-122.333 52.54c-15.844 6.812-41.719 6.812-57.552 0l-122.344-52.541c-17.104-7.344-18.948-19.469-18.938-24.344 0.001-0.49 0.043-1.093 0.095-1.718zM273.817 204.958c-8.802-3.792-25.5-3.75-34.385 0.042l-120.906 51.75c-0.323 0.135-0.615 0.271-0.875 0.396v33.729l109.583-47.073c7.927-3.396 18.146-5.271 28.771-5.271s20.844 1.875 28.761 5.281l109.604 47.052v-34.281l-120.553-51.625zM239.87 368.177c7.812 3.354 24.438 3.354 32.271 0l110.396-47.562-110.396-47.417c-7.812-3.354-24.469-3.354-32.281 0l-110.364 47.584 110.374 47.395zM101.651 219.666c-8.834 0-16-7.166-16-16v-24.375c0-4.938 1.969-17.25 20.25-25.104l120.927-51.75c8.542-3.667 19.239-5.5 29.917-5.5 10.625 0 21.25 1.812 29.688 5.438l120.562 51.646c16.833 7.25 19.375 18.688 19.375 24.875v24.771c0 8.834-7.167 16-16 16s-16-7.166-16-16v-20.25l-120.553-51.625c-8.802-3.791-25.5-3.771-34.385 0.062l-120.928 51.75c-0.312 0.125-0.594 0.25-0.854 0.375v19.688c0.001 8.833-7.166 15.999-15.999 15.999zM426.37 105.729v23.542c0 8.833-7.167 16-16 16s-16-7.167-16-16v-19.021l-120.553-51.625c-8.781-3.812-25.479-3.729-34.385 0.062l-120.948 51.75c-0.302 0.146-0.583 0.271-0.833 0.375v18.458c0 8.833-7.167 16-16 16-8.834 0-16-7.167-16-16v-23.125c0-4.958 1.969-17.292 20.25-25.104l120.927-51.771c8.552-3.667 19.25-5.5 29.938-5.5 10.625 0 21.229 1.812 29.667 5.438l120.562 51.646c16.854 7.25 19.375 18.708 19.375 24.875zM46.109 77.5v89.062c0 16.875-7 34.812-18.083 46.771 11.083 11.958 18.083 29.886 18.083 46.771v89.062c0 27.979 8 33.49 16.479 39.323 5.822 4 21.969 5.906 31.052 5.927l-0.021 32c-5.406 0-33.167-0.562-49.167-11.572-18.207-12.522-30.332-28.49-30.332-65.678v-89.062c0-16.229-10.595-28.197-14.084-28.521v-4.5l-0.031-32c3.521-0.323 14.115-12.292 14.115-28.521v-89.062c0-37.188 12.125-53.146 30.333-65.688 16-11 43.761-11.562 49.167-11.562l0.021 32c-9.083 0.021-25.229 1.938-31.052 5.938-8.48 5.833-16.48 11.333-16.48 39.312zM497.891 260.104v89.062c0 37.209-12.125 53.167-30.312 65.678-16.021 11.010-43.792 11.572-49.188 11.572l-0.021-32c9.083-0.021 25.229-1.927 31.062-5.938 8.479-5.822 16.479-11.322 16.479-39.312v-89.062c0-16.885 7-34.812 18.084-46.771-11.084-11.958-18.084-29.896-18.084-46.771v-89.062c0-27.979-8-33.479-16.5-39.312-5.812-4-21.958-5.917-31.041-5.938l0.021-32c5.396 0 33.167 0.562 49.167 11.562 18.208 12.521 30.333 28.479 30.333 65.688v89.062c0 16.229 10.604 28.197 14.083 28.521v4.5l0.021 32c-3.5 0.323-14.104 12.292-14.104 28.521z" />
<glyph unicode="&#x33;" d="M90.012 318.978h-0.375v-66.516c0-5.148 2.312-14.781 17.812-21.43l120.953-51.766c7.953-3.406 18.156-5.125 28.336-5.125 10.125 0 20.242 1.688 28.102 5.062l120.594 51.664c14.734 6.32 16.938 15.992 16.938 21.195v66.914h-0.375c0.062 0.648 0.094 1.234 0.094 1.727 0 4.078-1.625 14.258-16.531 20.664l-122.376 52.548c-14.867 6.391-39.508 6.391-54.375 0l-122.359-52.547c-14.922-6.406-16.531-16.586-16.531-20.664-0.001-0.492 0.030-1.078 0.093-1.726zM395.965 252.923l-120.578-51.656c-9.781-4.195-27.672-4.18-37.531 0.055l-120.953 51.766c-1.531 0.664-2.594 1.281-3.266 1.75v42.109l115.18-49.469c7.438-3.188 17.094-4.945 27.188-4.945s19.75 1.758 27.18 4.953l115.188 49.461v-42.789c-0.502-0.329-1.283-0.751-2.408-1.235zM238.277 371.868c8.883 3.812 26.539 3.812 35.438 0l119.156-51.172-119.156-51.156c-8.883-3.836-26.555-3.797-35.438-0.008l-119.141 51.164 119.141 51.172zM101.637 215.665c-6.625 0-12-5.375-12-12v-24.367c0-5.156 2.312-14.781 17.812-21.438l120.961-51.781c7.961-3.406 18.156-5.094 28.336-5.094 10.125 0 20.234 1.688 28.094 5.062l120.594 51.641c14.75 6.344 16.938 16.016 16.938 21.203v24.773c0 6.625-5.375 12-12 12s-12-5.375-12-12v-22.68c-0.5-0.328-1.281-0.75-2.406-1.25l-120.578-51.641c-9.781-4.203-27.656-4.172-37.531 0.047l-120.955 51.783c-1.531 0.656-2.594 1.281-3.266 1.75v21.992c0.001 6.625-5.374 12-11.999 12zM422.371 129.267c0 6.625-5.375 12-12 12s-12-5.375-12-12v-21.469c-0.5-0.312-1.281-0.75-2.406-1.219l-120.578-51.656c-9.781-4.188-27.656-4.172-37.531 0.062l-120.969 51.781c-1.523 0.656-2.578 1.266-3.25 1.719v20.781c0 6.625-5.375 12-12 12s-12-5.375-12-12v-23.156c0-5.156 2.312-14.781 17.812-21.406l120.953-51.781c7.961-3.406 18.164-5.125 28.352-5.125 10.125 0 20.227 1.688 28.086 5.062l120.594 51.656c14.75 6.344 16.938 16 16.938 21.219v23.532zM42.090 77.47v89.078c0 17.312-7.648 35.82-19.547 46.781 11.898 10.961 19.547 29.469 19.547 46.781v89.078c0 30.086 9.258 36.453 18.211 42.609 6.602 4.539 23.453 6.617 33.305 6.633l-0.008 24c-3.188 0-31.555-0.305-46.898-10.859-17.173-11.804-28.61-26.937-28.61-62.383v-89.078c0-17.805-11.977-32.539-18.086-32.539v-28.484c6.109 0 18.086-14.727 18.086-32.539v-89.078c0-35.453 11.438-50.578 28.602-62.375 15.352-10.562 43.719-10.859 46.906-10.859l0.008 24c-9.852 0-26.703 2.094-33.312 6.625-8.946 6.156-18.204 12.531-18.204 42.609zM493.918 260.11v89.078c0 35.461-11.438 50.586-28.609 62.375-15.344 10.562-43.719 10.867-46.906 10.867v-24c9.844-0.016 26.703-2.094 33.312-6.641 8.953-6.148 18.203-12.508 18.203-42.602v-89.078c0-17.312 7.641-35.82 19.547-46.781-11.906-10.961-19.547-29.469-19.547-46.781v-89.078c0-30.094-9.25-36.453-18.203-42.609-6.609-4.531-23.469-6.625-33.312-6.625v-24c3.188 0 31.562 0.297 46.906 10.844 17.172 11.812 28.609 26.938 28.609 62.391v89.078c0 17.812 11.984 32.539 18.078 32.539v28.484c-6.094 0-18.078 14.735-18.078 32.539z" />
<glyph unicode="&#x34;" d="M418.083 320.703c0 4.083-1.833 11.719-14.104 16.995l-122.375 52.547c-13.891 5.969-37.322 5.979-51.219 0l-122.359-52.547c-12.275-5.271-14.109-12.912-14.109-16.995 0-0.521 0.031-1.099 0.109-1.724h-0.396v-66.511c0-4.167 2-12.011 15.386-17.755l120.963-51.762c7.511-3.229 17.141-4.844 26.761-4.844 9.558 0 19.094 1.594 26.531 4.781l120.583 51.657c12.625 5.422 14.521 13.302 14.521 17.521v66.912h-0.406c0.072 0.626 0.114 1.205 0.114 1.725zM114.338 323l122.359 52.547c9.85 4.224 28.734 4.234 38.594 0l122.365-52.547c2.114-0.911 3.291-1.745 3.916-2.297-0.625-0.552-1.802-1.386-3.906-2.292l-122.375-52.547c-9.844-4.229-28.739-4.224-38.594-0.005l-122.359 52.552c-2.114 0.906-3.291 1.74-3.916 2.292 0.625 0.558 1.807 1.386 3.916 2.297zM397.541 249.25l-120.583-51.651c-10.792-4.625-29.797-4.615-40.677 0.053l-120.964 51.766c-4.317 1.854-5.558 3.458-5.688 3.219v50.391l120.761-51.87c6.947-2.979 16.041-4.62 25.609-4.62 9.567 0 18.656 1.641 25.604 4.625l120.781 51.87 0.053-50.573c0.001-0.012-0.791-1.449-4.896-3.21zM410.375 211.667c-4.417 0-8-3.584-8-8l0.062-24.381c0-0.010-0.792-1.447-4.896-3.209l-120.583-51.656c-10.797-4.635-29.802-4.604-40.677 0.053l-120.964 51.771c-4.229 1.812-5.469 3.5-5.688 3.219v24.203c0 4.416-3.583 8-8 8s-8-3.584-8-8v-24.371c0-4.166 2-12.010 15.386-17.76l120.963-51.771c7.516-3.207 17.146-4.832 26.766-4.832 9.558 0 19.1 1.604 26.526 4.791l120.583 51.646c12.625 5.438 14.521 13.312 14.521 17.52v24.777c0.001 4.416-3.583 8-7.999 8zM410.375 137.265c-4.417 0-8-3.582-8-8l0.062-23.145c0-0.021-0.792-1.459-4.896-3.219l-120.583-51.656c-10.808-4.625-29.812-4.584-40.677 0.062l-120.969 51.77c-4.225 1.812-5.464 3.521-5.683 3.209v22.979c0 4.418-3.583 8-8 8s-8-3.582-8-8v-23.145c0-4.168 2-12.012 15.386-17.75l120.963-51.762c7.516-3.229 17.151-4.844 26.771-4.844 9.552 0 19.094 1.594 26.521 4.781l120.583 51.656c12.625 5.428 14.521 13.312 14.521 17.521v23.541c0.001 4.42-3.583 8.002-7.999 8.002zM38.088 260.114v89.078c0 29.823 8.641 38.136 19.933 45.901 8.719 5.995 28.636 7.328 35.578 7.339l-0.005 16c-3.058 0-30.287-0.287-44.636-10.151-13.599-9.349-26.87-21.614-26.87-59.089v-89.078c0-18.817-12.443-36.536-22.088-36.536v-20.489c9.646 0 22.088-17.719 22.088-36.531v-89.084c0-37.479 13.271-49.74 26.87-59.084 14.349-9.875 41.578-10.156 44.636-10.156l0.005 16c-6.942 0.012-26.859 1.344-35.578 7.344-11.292 7.762-19.933 16.074-19.933 45.896v89.084c0 19.354-9.572 37.797-22.177 46.775 12.605 8.979 22.177 27.417 22.177 46.781zM489.916 260.114v89.078c0 37.479-13.281 49.74-26.875 59.089-14.353 9.864-41.583 10.152-44.635 10.152l-0.011-16c6.948-0.011 26.864-1.344 35.583-7.339 11.292-7.761 19.938-16.073 19.938-45.901v-89.078c0-19.364 9.562-37.802 22.167-46.781-12.604-8.979-22.167-27.422-22.167-46.775v-89.084c0-29.834-8.646-38.146-19.938-45.896-8.719-6-28.635-7.332-35.583-7.344l0.011-16c3.052 0 30.281 0.281 44.635 10.156 13.594 9.344 26.875 21.605 26.875 59.084v89.084c0 18.812 12.438 36.531 22.084 36.531v20.489c-9.646-0.001-22.084 17.718-22.084 36.535z" />
<glyph unicode="&#x35;" d="M338.92 388.528c25.445 0 48.445-10.736 64.576-27.92 20.13 3.961 39.076 11.329 56.181 21.46-6.632-20.657-20.63-37.985-38.919-48.932 17.894 2.131 34.945 6.881 50.812 13.92-11.867-17.736-26.84-33.314-44.129-45.774 0.158-3.802 0.264-7.618 0.264-11.446 0-116.916-88.996-251.698-251.672-251.698-49.972 0-96.469 14.657-135.6 39.787 6.922-0.842 13.947-1.263 21.105-1.263 41.445 0 79.574 14.131 109.836 37.866-38.682 0.711-71.365 26.288-82.627 61.418 5.42-1.026 10.946-1.578 16.656-1.578 8.053 0 15.868 1.078 23.289 3.104-40.445 8.131-70.944 43.88-70.944 86.732 0 0.369 0 0.737 0 1.105 11.921-6.631 25.577-10.592 40.077-11.052-23.736 15.867-39.367 42.932-39.367 73.614 0 16.21 4.369 31.406 12 44.472 43.604-53.523 108.811-88.732 182.307-92.416-1.5 6.473-2.289 13.223-2.289 20.156 0.001 48.842 39.604 88.445 88.444 88.445zM338.92 428.947c-61.918 0-113.811-43.919-126.1-102.245-43.234 11.171-82.338 35.959-111.021 71.168-7.709 9.46-19.235 14.894-31.34 14.894-1.026 0-2.079-0.039-3.131-0.118-13.211-1.026-25.078-8.474-31.762-19.92-11.474-19.617-17.525-42.037-17.525-64.853 0-13.736 2.157-27.144 6.289-39.84-4.5-6.592-7-14.473-7-22.723 0-32.262 11.657-62.076 31.235-84.97-0.605-5.578-0.079-11.263 1.685-16.735 5.552-17.263 14.473-32.735 25.945-45.762-4.815-0.5-9.71-0.763-14.656-0.763-5.475 0-10.947 0.315-16.289 0.947-1.632 0.211-3.236 0.315-4.842 0.315-16.868 0-32.183-10.578-38.025-26.762-6.368-17.735 0.369-37.498 16.21-47.682 47.050-30.209 101.494-46.182 157.439-46.182 85.653 0 162.755 33.998 217.174 95.705 45.865 52.024 72.891 120.376 74.812 188.597 14.104 12.46 26.552 26.709 37.156 42.563 9.999 14.946 8.921 34.722-2.657 48.484-0.922 1.079-1.869 2.092-2.869 3.053 2.105 14.092-3.368 28.459-14.762 37.537-7.342 5.855-16.264 8.829-25.21 8.829-7.104 0-14.21-1.868-20.604-5.645-8.104-4.803-16.604-8.724-25.42-11.749-21.656 15.358-47.84 23.857-74.732 23.857v0z" />
<glyph unicode="&#x36;" d="M512 8.050h-45.851c0 229.074-186.358 415.433-415.433 415.433v45.85c254.358 0 461.284-206.925 461.284-461.283zM361.94 8.050h-45.85c0 146.357-119.045 265.403-265.373 265.403v45.85c171.611 0 311.223-139.642 311.223-311.253zM98.418 108.318c28.985 0 52.537-23.582 52.537-52.597 0-28.955-23.552-52.537-52.537-52.537-28.984 0-52.566 23.582-52.566 52.537 0 29.015 23.582 52.597 52.566 52.597zM98.418 154.169c-54.357 0-98.418-44.060-98.418-98.447 0-54.328 44.061-98.389 98.418-98.389 54.328 0 98.389 44.061 98.389 98.389 0 54.387-44.061 98.447-98.389 98.447v0z" />
<glyph unicode="&#x37;" d="M460.8 330.348h-21.942v80.485c0 28.229-22.972 51.2-51.2 51.2h-263.315c-28.229 0-51.2-22.972-51.2-51.2v-80.485h-21.944c-28.228 0-51.199-22.972-51.199-51.201v-263.314c0-28.229 22.971-51.2 51.199-51.2h409.601c28.229 0 51.2 22.972 51.2 51.2v263.314c0 28.229-22.972 51.201-51.2 51.201zM124.343 418.147h263.314c4.028 0 7.313-3.286 7.313-7.314v-157.771l-113.113-113.086c-13.715-13.714-38-13.714-51.715 0l-113.114 113.128v157.729c0 4.028 3.286 7.314 7.315 7.314zM73.143 234.962v-0.029l79.029-79.042-108.286-115.030v223.358l29.257-29.257zM183.229 124.833l15.886-15.886c15.143-15.143 35.343-23.485 56.886-23.485v0c0.028 0 0.028 0 0.028 0 21.543 0 41.743 8.343 56.886 23.485l12.914 12.914 106.686-113.343h-358.8l109.514 116.315zM356.857 152.891l111.257 111.214v-229.386l-111.257 118.172zM157.257 379.633h197.485v-43.886h-197.485v43.886zM157.257 297.348h197.485v-43.886h-197.485v43.886z" />
<glyph unicode="&#x38;" d="M374.605 116.366c-38 0-70.791 21.895-86.711 53.736h-44.816l-37.447 37.447-37.447-37.447h-8.684l-37.447 37.446-37.448-37.445h-2.21l-41.974 39.974 41.974 39.961h202.473c14.473 35.368 49.158 60.263 89.737 60.263 53.553 0 96.973-43.421 96.973-96.96 0-53.554-43.42-96.975-96.973-96.975zM374.605 75.944c75.763 0 137.395 61.632 137.396 137.396 0 75.75-61.632 137.382-137.395 137.382-46.342 0-88.527-22.949-113.737-60.264h-178.474c-10.368 0-20.368-3.975-27.868-11.132l-41.974-39.973c-8.027-7.631-12.553-18.211-12.553-29.277s4.526-21.644 12.553-29.276l41.974-39.974c7.5-7.158 17.5-11.146 27.868-11.146h2.21c10.71 0 21 4.264 28.579 11.842l8.869 8.855 8.868-8.855c7.579-7.578 17.869-11.842 28.579-11.842h8.683c10.71 0 21 4.264 28.579 11.842l8.868 8.855 8.869-8.855c7.579-7.578 17.869-11.842 28.579-11.842h22.58c25.71-33.658 65.525-53.736 108.947-53.736v0zM375.606 184.522c15.895 0 28.815 12.896 28.814 28.816s-12.92 28.803-28.814 28.803c-15.947 0-28.843-12.883-28.843-28.803s12.896-28.816 28.843-28.816v0z" />
<glyph unicode="&#x39;" d="M386.899 41.656c32.655 0 59.226 26.571 59.226 59.255 0 32.627-26.57 59.197-59.226 59.197-24.885 0-46.17-15.484-54.913-37.255h-123.109v-21.942c0-45.512-36.999-82.512-82.483-82.512-45.483 0-82.511 37-82.511 82.512 0 45.484 37.027 82.454 82.511 82.454v43.898c-69.683 0-126.395-56.698-126.395-126.353 0-69.711 56.712-126.396 126.395-126.396 62.198 0 114.054 45.17 124.453 104.454h81.14c8.742-21.826 30.028-37.312 54.912-37.312zM386.899 116.226c8.456 0 15.342-6.857 15.342-15.314s-6.886-15.371-15.342-15.371c-8.457 0-15.343 6.914-15.343 15.371s6.886 15.314 15.343 15.314zM175.85 229.006l-40.685-70.498c-23.113 2.771-47.655-8.057-59.598-28.656-7.914-13.713-10-29.684-5.914-44.94 4.114-15.285 13.914-28.056 27.6-35.942 8.999-5.199 19.228-7.941 29.599-7.941 21.113 0 40.77 11.313 51.312 29.599 12.457 21.542 9.686 47.712-4.828 66.197l61.598 106.567-19.057 11c-19.084 11.028-32.741 28.813-38.455 50.098-5.686 21.285-2.771 43.527 8.257 62.612 22.742 39.413 73.312 52.884 112.71 30.199 39.37-22.742 52.912-73.297 30.17-112.696l37.999-21.942c34.856 60.34 14.114 137.795-46.227 172.636-60.397 34.842-137.823 14.1-172.651-46.255-16.885-29.228-21.37-63.298-12.627-95.911 6.798-25.428 21.026-47.598 40.797-64.127zM140.165 92.569c-4.086-7.086-13.742-9.828-20.941-5.601-3.572 2.058-6.115 5.372-7.172 9.313-1.057 3.943-0.514 8.086 1.514 11.6 2.744 4.743 7.857 7.715 13.344 7.715 2.713 0 5.285-0.686 7.627-2.057 7.343-4.227 9.857-13.656 5.628-20.97zM418.269 222.878c-25.398 6.771-51.74 5.585-75.969-3.3l-40.541 70.226c14.485 18.471 17.257 44.627 4.828 66.212-15.713 27.213-53.512 37.484-80.91 21.67-13.715-7.914-23.514-20.685-27.6-35.97s-1.971-31.242 5.943-44.913c10.514-18.285 30.198-29.642 51.312-29.642 2.771 0 5.457 0.686 8.2 1.086l61.74-106.996 19.027 10.972c19.086 11.027 41.285 13.999 62.627 8.256 21.285-5.686 39.056-19.342 50.084-38.427 11.027-19.085 13.941-41.313 8.256-62.626-5.713-21.257-19.37-39.057-38.455-50.084-39.398-22.686-89.939-9.172-112.71 30.227l-37.999-21.97c23.399-40.513 65.998-63.141 109.711-63.141 21.398 0 43.112 5.428 62.939 16.885 29.257 16.886 50.17 44.142 58.885 76.74 8.742 32.599 4.256 66.655-12.629 95.911-16.856 29.228-44.112 50.142-76.739 58.884zM242.019 318.746c-2.057 3.542-2.6 7.671-1.543 11.628s3.6 7.257 7.143 9.3c2.371 1.386 4.943 2.071 7.656 2.071 5.486 0 10.572-2.928 13.314-7.657 4.229-7.343 1.715-16.756-5.629-20.985-7.228-4.128-16.856-1.457-20.941 5.643z" />
<glyph unicode="&#x3a;" d="M46.125 77.5v89.062c0 16.875-7 34.812-18.083 46.771 11.083 11.958 18.083 29.896 18.083 46.771v89.062c0 27.979 8 33.479 16.458 39.312 5.834 4 21.979 5.917 31.062 5.938l-0.021 32c-5.417 0-33.167-0.562-49.167-11.562-18.208-12.541-30.333-28.5-30.333-65.688v-89.062c0-16.229-10.583-28.208-14.083-28.521v-4.5l-0.041-32c3.542-0.312 14.125-12.292 14.125-28.521v-89.062c0-37.188 12.125-53.146 30.333-65.688 16-11 43.75-11.562 49.167-11.562l0.021 32c-9.083 0.021-25.229 1.938-31.062 5.938-8.459 5.833-16.459 11.333-16.459 39.312zM497.895 260.104v89.062c0 37.209-12.125 53.167-30.312 65.688-16.020 11-43.791 11.562-49.188 11.562l-0.020-32c9.082-0.021 25.229-1.938 31.062-5.938 8.479-5.833 16.479-11.333 16.479-39.312v-89.062c0-16.875 7-34.812 18.084-46.771-11.084-11.958-18.084-29.896-18.084-46.771v-89.062c0-27.979-8-33.479-16.5-39.312-5.812-4-21.959-5.917-31.041-5.938l0.020-32c5.396 0 33.168 0.562 49.168 11.562 18.207 12.521 30.332 28.479 30.332 65.688v89.062c0 16.229 10.605 28.208 14.084 28.521v4.5l0.021 32c-3.5 0.312-14.105 12.292-14.105 28.521z" />
<glyph unicode="&#x3b;" d="M56.219 347.772c0 23.533 5.659 27.445 12.803 32.377 3.433 2.258 16.204 4.422 26.315 4.469l-0.031 47.498c-8.102 0-35.84-0.928-53.188-12.833-17.348-11.936-33.397-28.867-33.397-71.511v-88.147c0-10.56-8.783-19.389-8.721-20.316v-51.426c2.598-1.453 8.721-10.267 8.721-20.843v-88.131c0-42.675 16.049-59.59 33.429-71.558 17.316-11.874 45.055-12.802 53.156-12.802l0.031 47.498c-10.111 0.062-22.883 2.227-26.254 4.453-7.205 4.948-12.864 8.844-12.864 32.408v88.131c0 16.197-5.612 33.31-15.219 46.296 9.607 12.987 15.219 30.1 15.219 46.289v88.148zM503.311 259.625v88.147c0 42.644-16.080 59.574-33.459 71.526-17.317 11.89-45.056 12.817-53.127 12.817l-0.062-47.498c10.081-0.047 22.883-2.211 26.285-4.453 7.174-4.947 12.864-8.859 12.864-32.393v-88.147c0-16.189 5.596-33.302 15.188-46.289-9.592-12.986-15.188-30.099-15.188-46.296v-88.131c0-23.564-5.69-27.46-12.864-32.408-3.402-2.227-16.204-4.391-26.285-4.453l0.062-47.498c8.071 0 35.81 0.928 53.127 12.833 17.379 11.937 33.459 28.852 33.459 71.526v88.131c0 10.576 8.782 19.39 8.689 20.317v51.441c-2.598 1.439-8.689 10.268-8.689 20.828z" />
<glyph unicode="&#x3c;" d="M304.842 84.249l-129.623 129.613 128.601 128.565 21.302-21.301-107.304-107.264 108.324-108.312z" />
<glyph unicode="&#x3d;" d="M161.545-42.667v95.017h-78.107c-43.618 0-79.091 35.473-79.091 79.091v258.801c0 43.618 35.472 79.091 79.091 79.091h345.124c43.618 0 79.092-35.473 79.092-79.091v-258.802c0-43.618-35.474-79.091-79.092-79.091h-102.937l-164.080-95.016zM83.438 426.191c-19.829 0-35.95-16.121-35.95-35.949v-258.802c0-19.829 16.122-35.951 35.95-35.951h121.249v-63.333l109.369 63.333h114.507c19.829 0 35.951 16.122 35.951 35.951v258.802c0 19.828-16.122 35.949-35.951 35.949h-345.125z" />
<glyph unicode="&#x3e;" d="M208.192 84.229l-21.299 21.299 107.283 107.276-108.313 108.313 21.3 21.299 129.612-129.612z" />
<glyph unicode="&#x3f;" d="M255.471 132.536l-128.564 128.604 21.3 21.3 107.264-107.304 108.313 108.334 21.3-21.301z" />
<glyph unicode="&#x41;" d="M230.064-42.651c-6.938 0-13.041 4.594-14.957 11.291l-67.142 236.84-38.29-130.534c-1.938-6.624-7.999-11.155-14.895-11.155h-87.223v31.051h75.6l50.163 171.042c1.938 6.625 8 11.155 14.896 11.155 0.021 0 0.041 0 0.062 0 6.937-0.021 12.999-4.635 14.874-11.291l65.62-231.403 100.953 422.994c1.688 7.146 7.729 12.624 15.541 11.916 7.332-0.208 13.541-5.541 14.832-12.78l64.746-361.634h79.6v-31.051h-92.6c-7.52 0-13.957 5.386-15.289 12.78l-53.893 301.17-97.495-408.476c-1.646-6.864-7.708-11.771-14.791-11.916-0.104 0.001-0.208 0.001-0.312 0.001z" />
<glyph unicode="&#x42;" d="M466.812 469.322h-421.624c-24.917 0-45.188-20.25-45.188-45.166v-421.646c0-24.916 20.271-45.166 45.188-45.166h421.625c24.917 0 45.188 20.25 45.188 45.166v421.646c-0.001 24.916-20.272 45.166-45.189 45.166zM45.188 439.218h421.625c8.312 0 15.062-6.771 15.062-15.062v-65.25h-451.75v65.25c0 8.291 6.75 15.062 15.063 15.062zM466.812-12.553h-421.624c-8.312 0-15.062 6.771-15.062 15.062v326.272h451.75v-326.271c-0.001-8.291-6.751-15.063-15.064-15.063zM113.854 211.447l53-53.021-51.937-51.916 21.291-21.291 73.25 73.207-74.312 74.334zM266.042 107.926h110.438v-30.125h-110.438v30.125z" />
<glyph unicode="&#x43;" d="M282.414 440.861l16.271-79.809c11.104-3.218 21.727-7.666 31.623-13.124l68.975 43.883 36.289-36.278-44.998-67.913c5.5-9.968 9.959-20.54 13.166-31.654l79.809-17.759v-51.268l-79.809-16.281c-3.207-11.124-7.666-21.696-13.166-31.644l43.914-68.975-36.246-36.237-67.977 44.955c-9.916-5.541-20.52-9.979-31.664-13.145l-17.729-79.808h-51.289l-16.248 79.786c-11.104 3.24-21.729 7.625-31.603 13.146l-69.037-43.925-36.27 36.259 44.956 67.975c-5.458 9.916-9.916 20.52-13.104 31.654l-79.828 17.739v51.257l79.828 16.259c3.188 11.166 7.646 21.749 13.104 31.665l-43.872 68.996 36.247 36.247 67.976-44.955c9.937 5.479 20.499 9.927 31.603 13.145l17.748 79.809h51.331zM256 168.231c24.917 0 45.061 20.166 45.061 45.070 0 24.905-20.145 45.112-45.061 45.112-24.915 0-45.101-20.207-45.101-45.112 0-24.904 20.185-45.070 45.101-45.070zM282.414 469.307h-51.33c-13.332 0-24.873-9.26-27.769-22.279l-14.291-64.277c-1.729-0.698-3.458-1.406-5.166-2.146l-54.435 35.987c-4.791 3.177-10.229 4.719-15.666 4.719-7.332 0-14.645-2.834-20.123-8.334l-36.226-36.258c-9.437-9.426-11.041-24.123-3.896-35.362l35.311-55.56c-0.729-1.738-1.458-3.479-2.167-5.218l-63.87-13.021c-13.25-2.688-22.77-14.353-22.77-27.862v-51.257c0-13.333 9.249-24.874 22.27-27.77l64.267-14.28c0.688-1.739 1.396-3.479 2.146-5.198l-35.999-54.423c-7.458-11.28-5.937-26.248 3.604-35.81l36.289-36.259c5.5-5.479 12.771-8.322 20.124-8.322 5.25 0 10.541 1.459 15.249 4.438l55.559 35.352c1.709-0.739 3.438-1.458 5.188-2.156l13.021-63.881c2.687-13.249 14.353-22.77 27.852-22.77h51.289c13.332 0 24.873 9.26 27.748 22.279l14.291 64.215c1.771 0.698 3.521 1.438 5.271 2.188l54.393-35.966c4.791-3.177 10.229-4.719 15.666-4.719 7.332 0 14.623 2.833 20.123 8.333l36.227 36.237c9.438 9.427 11.041 24.134 3.896 35.383l-35.332 55.507c0.75 1.729 1.459 3.479 2.166 5.219l63.914 13.030c13.229 2.708 22.748 14.354 22.748 27.874v51.268c0 13.332-9.25 24.873-22.248 27.769l-64.309 14.302c-0.688 1.75-1.396 3.479-2.146 5.197l35.998 54.351c7.479 11.291 5.979 26.27-3.584 35.831l-36.289 36.279c-5.5 5.489-12.791 8.322-20.123 8.322-5.271 0-10.562-1.469-15.25-4.447l-55.537-35.331c-1.73 0.739-3.438 1.468-5.188 2.155l-13.041 63.913c-2.689 13.238-14.355 22.758-27.855 22.758v0zM256 196.678c-9.187 0-16.665 7.458-16.665 16.624 0 9.187 7.479 16.666 16.665 16.666 9.167 0 16.604-7.479 16.604-16.666 0-9.166-7.438-16.624-16.604-16.624v0z" />
<glyph unicode="&#x44;" d="M469.25 370.15h-119.021v59.511c0 24.479-15.209 39.677-39.667 39.677h-257.895c-24.042 0-49.584-13.916-49.584-39.677v-307.479c0-24.562 25.021-49.583 49.584-49.583h94.229v29.771h-94.229c-8.146 0-19.834 11.667-19.834 19.812v307.479c0 5.833 10.459 9.917 19.834 9.917h257.896c8.25 0 9.917-1.667 9.917-9.917v-89.271h148.77c8.25 0 9.917-1.667 9.917-9.917v-208.292c0-9.375-4.062-19.812-9.917-19.812h-104.146v-29.771h104.146c25.771 0 39.667 25.542 39.667 49.583v208.293c0 24.843-14.834 39.676-39.667 39.676zM270.875 14.099v162.645h-29.75v-162.276l-36.25 36.235-21.042-21.021 72.355-72.354 73.416 73.416-21.042 21.042z" />
<glyph unicode="&#x45;" d="M256-35.136c-141.167 0-256 114.834-256 256 0 82.959 40.521 161.167 108.417 209.125l17.375-24.583c-59.917-42.354-95.688-111.333-95.688-184.542 0-124.562 101.333-225.896 225.896-225.896 124.541 0 225.875 101.333 225.875 225.896 0 72.334-35.125 140.875-93.959 183.292l17.625 24.438c66.667-48.083 106.459-125.73 106.459-207.73 0-141.166-114.834-256-256-256zM242.521 461.802h30.125v-240.938h-30.125v240.938z" />
<glyph unicode="&#x46;" d="M332.51 469.338h-237.125c-24.917 0-45.188-20.271-45.188-45.188v-421.656c0-24.896 20.271-45.166 45.188-45.166h321.23c24.916 0 45.188 20.271 45.188 45.166v337.542l-129.293 129.302zM341.322 417.921l69.062-69.062h-54c-8.291 0-15.062 6.76-15.062 15.062v54zM416.615-12.547h-321.23c-8.292 0-15.062 6.75-15.062 15.041v421.656c0 8.312 6.771 15.062 15.062 15.062h215.812v-75.291c0-24.917 20.293-45.178 45.188-45.178h75.293v-316.25c0-8.29-6.772-15.040-15.063-15.040z" />
<glyph unicode="&#x47;" d="M394.354 254.088c23.209 16.75 38.5 43.854 38.5 74.604 0 50.771-41.312 92.073-92.083 92.073-22.104 0-42.146-8.146-58.042-21.178 8.104-6.062 15.5-12.947 22.062-20.646 10.167 7.302 22.521 11.708 35.979 11.708 34.167 0 61.979-27.791 61.979-61.958 0-34.188-27.812-61.989-61.979-61.989-2.104 0-4.062 0.406-6.104 0.614-2.375-12.959-6.604-25.25-12.416-36.646 6.791 1.073 13.646 1.792 20.666 1.792 74.271 0 137.917-62.396 138.959-136.229l30.125 0.417c-1.021 72.208-51.167 135.324-117.646 157.438zM260.854 199.036c30.646 19.521 51.021 53.697 51.021 92.625 0 60.583-49.271 109.875-109.812 109.875-60.604 0-109.896-49.292-109.896-109.875 0-39.584 21.084-74.24 52.584-93.584-82.563-25.385-143.501-101.76-144.751-191.76l30.125-0.417c1.333 94.333 79.625 171.063 174.541 171.063 94.875 0 173.188-76.729 174.542-171.062l30.125 0.417c-1.333 91.332-64.104 168.457-148.479 192.718zM122.271 291.661c0 43.979 35.792 79.75 79.792 79.75 43.938 0 79.708-35.771 79.708-79.75s-35.771-79.75-79.708-79.75c-44.001 0-79.792 35.771-79.792 79.75z" />
<glyph unicode="&#x48;" d="M256.039-6.589l-45.432 0.039c-135.803 0-210.607 73.254-210.607 206.285 0 40.921 12.451 75.607 38.020 105.764-2.863 22.774 0.471 70.99 18.805 117.098l4.254 10.657 11.393-1.255c2.039-0.226 49.529-5.912 120.49-53.245 15.666 3.265 38.098 5.108 63.039 5.108s47.373-1.843 63.039-5.108c70.96 47.333 118.47 53.020 120.509 53.246l11.393 1.255 4.255-10.657c18.313-46.098 21.647-94.313 18.784-117.098 25.568-30.158 38.019-64.844 38.019-105.765 0-133.031-74.804-206.285-210.607-206.285l-45.354-0.039zM80.49 399.637c-14.49-43.363-14.49-85.471-12.176-93.245l2.411-8.196-5.432-7.304c-24-26.040-35.177-55-35.177-91.156 0-145.619 98.157-176.168 180.49-176.168l90.787-0.001c82.333 0 180.49 30.549 180.49 176.168 0 36.156-11.177 65.117-35.177 91.156l-6.471 7.020 3.589 8.853c2.195 7.441 2.176 49.529-12.295 92.873-17.393-4.529-53.666-17-101-49.49l-5.784-3.961-6.765 1.873c-25.373 7.020-98.588 7.020-123.961 0l-6.765-1.873-5.784 3.961c-47.314 32.47-83.568 44.94-100.98 49.49zM164.098 223.519c11.727 0 24.863-0.922 38.785-1.912 16.666-1.177 33.882-2.393 52.353-2.393 0.157 0 0.313 0 0.471 0h1.059c18.471 0 35.706 1.216 52.372 2.402 13.922 0.98 27.079 1.902 38.805 1.902 21.922 0 34.823-3.235 43.098-10.843 12.844-11.804 18.824-25.313 18.824-42.521 0-55.725-22.902-82.273-153.099-82.273h-1.529c-130.196 0-153.099 26.549-153.099 82.273 0 17.207 5.98 30.717 18.824 42.511 8.293 7.609 21.175 10.854 43.136 10.854zM347.922 253.646c-26.941-0.010-58.039-4.314-91.157-4.314-0.235 0-0.471 0.010-0.765 0.030-0.235-0.020-0.529-0.030-0.765-0.030-33.099 0-64.196 4.314-91.138 4.314-25.451 0-47.215-3.853-63.51-18.794-20.098-18.46-28.568-40.726-28.568-64.697 0-100.078 80.216-112.391 183.216-112.391h1.529c103 0 183.216 12.312 183.216 112.391 0 23.971-8.471 46.236-28.568 64.697-16.275 14.951-38.019 18.794-63.49 18.794v0zM172.451 126.999c-16.529 0-29.961 13.451-29.961 29.98 0 16.51 13.432 29.941 29.961 29.941 16.51 0 29.941-13.432 29.941-29.941 0.001-16.529-13.431-29.98-29.941-29.98zM341.863 126.999c-16.529 0-29.961 13.451-29.961 29.98 0 16.51 13.432 29.941 29.961 29.941 16.51 0 29.941-13.432 29.941-29.941 0.001-16.529-13.431-29.98-29.941-29.98z" />
<glyph unicode="&#x49;" d="M256 91.843c-67.020 0-121.529 54.49-121.529 121.49s54.51 121.5 121.529 121.5c66.98 0 121.49-54.5 121.49-121.5s-54.51-121.49-121.49-121.49zM256 304.716c-50.412 0-91.412-40.99-91.412-91.382 0-50.393 41-91.374 91.412-91.374 50.392 0 91.372 40.98 91.372 91.374 0 50.392-40.98 91.382-91.372 91.382zM256 22.019c-134.882 0-256 129.941-256 191.314s121.118 191.314 256 191.314c142.471 0 256-137.382 256-191.313 0-53.923-113.529-191.315-256-191.315zM256 374.529c-124.255 0-225.882-121.705-225.882-161.196s101.627-161.196 225.882-161.196 225.882 121.706 225.882 161.196c0 39.491-101.627 161.196-225.882 161.196z" />
<glyph unicode="&#x4a;" d="M251.598 321.22l-22.146-22.136-91.54 91.561v-333.242c0-25.887 21.076-46.963 46.963-46.963h327.125v-31.307h-327.126c-43.172 0-78.271 35.119-78.271 78.271v327.166l-84.467-84.467-22.136 22.136 125.294 125.294 126.304-126.313z" />
<glyph unicode="&#x4b;" d="M256.001 439.81c2.383 0 4.766-2.547 6.592-7.65l50.898-143.331c3.633-10.207 15.453-18.548 26.274-18.548h132.74c10.821 0 12.609-5.334 3.979-11.859l-109.003-82.237c-8.63-6.535-13.397-20.412-10.571-30.869l39.922-147.982c1.826-6.746 0.5-10.476-3.018-10.476-1.903 0-4.459 1.115-7.496 3.421l-114.673 87.609c-4.306 3.307-9.976 4.94-15.646 4.94s-11.341-1.634-15.646-4.94l-114.672-87.609c-3.037-2.306-5.594-3.421-7.497-3.421-3.517 0-4.844 3.729-3.018 10.476l39.941 147.982c2.825 10.457-1.941 24.334-10.571 30.859l-109.019 82.246c-8.631 6.525-6.844 11.859 3.979 11.859h132.74c10.821 0 22.643 8.342 26.275 18.548l50.896 143.331c1.826 5.104 4.21 7.651 6.594 7.651zM256.001 469.333c-5.786 0-25.392-1.96-34.406-27.274l-50.513-142.255h-131.587c-27.236 0-35.405-18.077-37.27-23.613-1.864-5.545-6.247-24.892 15.493-41.316l108.252-81.68c0.154-0.308 0.309-0.77 0.385-1.115l-39.692-147.041c-4.613-17.067 0.308-28.369 5.267-34.828 6.266-8.188 15.819-12.878 26.256-12.878 8.611 0 17.146 3.19 25.392 9.457l112.424 85.918 112.404-85.88c8.265-6.305 16.799-9.495 25.41-9.495 10.418 0 19.99 4.69 26.256 12.878 4.959 6.459 9.879 17.761 5.267 34.828l-39.673 147.041c0.077 0.346 0.23 0.808 0.385 1.135l108.215 81.641c21.758 16.443 17.375 35.79 15.511 41.335-1.864 5.536-10.033 23.613-37.27 23.613h-131.588l-50.513 142.235c-9.014 25.334-28.62 27.294-34.405 27.294v0z" />
<glyph unicode="&#x4c;" d="M255.424-42.654c-55.048 0-108.368 17.697-153.167 51.331-54.674 41.049-90.088 100.92-99.723 168.614-11.427 80.359 16.446 162.292 74.568 219.153l21.061-21.53c-51.288-50.185-75.891-122.472-65.798-193.384 17.541-123.284 132.159-209.436 255.412-191.76 59.725 8.49 112.565 39.717 148.792 87.953 36.228 48.237 51.497 107.682 42.997 167.406-8.488 59.727-39.736 112.557-87.973 148.783-41.186 30.914-90.568 46.539-141.273 45.195l41.768-55.893-24.145-18.020-57.976 77.6c-3.177 4.26-3.885 9.885-1.833 14.79 2.042 4.906 6.521 8.374 11.78 9.135 67.6 9.624 135.075-7.666 189.749-48.726 54.685-41.050 90.099-100.932 99.724-168.625 9.623-67.684-7.678-135.064-48.737-189.729-41.050-54.663-100.942-90.067-168.646-99.702-12.217-1.727-24.445-2.591-36.58-2.591z" />
<glyph unicode="&#x4d;" d="M471.833 389.010h-230.895v40.166c0 24.75-15.375 40.146-40.146 40.146h-150.604c-24.313 0-50.188-14.083-50.188-40.146v-421.645c0-24.855 25.333-50.188 50.188-50.188h421.646c26.104 0 40.167 25.854 40.167 50.188v341.333c-0.001 24.75-15.376 40.146-40.168 40.146zM50.188 439.218h150.604c8.333 0 10.021-1.688 10.021-10.042v-70.271h261.021c8.354 0 10.042-1.688 10.042-10.042v-50.188h-451.751v130.5c0 5.918 10.563 10.043 20.063 10.043zM471.833-12.553h-421.645c-8.25 0-20.062 11.834-20.062 20.084v261.020h451.75v-261.020c-0.001-9.5-4.126-20.084-10.043-20.084z" />
<glyph unicode="&#x4e;" d="M417.886 378.656c-42.623 0-78.758-28.55-90.266-67.537l-139.576 41.875c0.081 1.569 0.125 3.148 0.127 4.737 0.062 25.145-9.666 48.799-27.394 66.6-17.729 17.812-41.331 27.645-66.684 27.707-51.768 0-93.974-42.111-94.078-93.879-0.125-51.883 41.998-94.183 93.891-94.297 0.021 0 0.208 0 0.208 0 6.251 0 12.361 0.619 18.275 1.79l37.843-118.45c-25.402-16.823-42.227-45.636-42.306-78.297-0.041-25.134 9.688-48.778 27.437-66.579 17.728-17.821 41.33-27.644 66.454-27.696 0.021 0 0.229 0 0.229 0 51.768 0 93.953 42.123 94.057 93.88 0.056 22.224-7.55 43.279-21.565 60.172l86.503 80.967c15.75-11.979 35.373-19.12 56.639-19.167 0.021 0 0.208 0 0.208 0 51.769 0 93.974 42.112 94.099 93.88 0.081 51.88-42.020 94.18-94.101 94.294zM93.969 293.756c-17.166 0.031-33.248 6.749-45.352 18.904-12.104 12.146-18.77 28.29-18.728 45.436 0.083 35.32 28.894 64.048 64.35 64.048 17.145-0.031 33.269-6.75 45.372-18.896 12.083-12.145 18.729-28.279 18.687-45.444-0.062-35.321-28.873-64.048-64.184-64.048zM140.436 276.090c18.665 10.61 33.369 27.417 41.286 47.596l142.14-42.644c0.684-18.425 6.692-35.518 16.535-49.777l-88.435-82.774c-14.782 9.278-31.937 14.263-49.979 14.293-8.408 0-16.562-1.118-24.326-3.203l-37.221 116.509zM201.879 4.523c-17.146 0.021-33.228 6.738-45.331 18.884-12.104 12.155-18.77 28.29-18.728 45.435 0.083 35.321 28.853 64.059 64.35 64.059 15.212-0.027 29.614-5.329 41.108-15.006 0.067-0.060 0.135-0.118 0.203-0.176 1.388-1.179 2.742-2.407 4.040-3.713 12.104-12.145 18.729-28.279 18.687-45.435-0.042-35.321-28.853-64.048-64.163-64.048zM417.74 220.364c-35.394 0.083-64.121 28.946-64.079 64.34 0.104 35.32 28.915 64.059 64.371 64.059 35.394-0.073 64.1-28.946 64.059-64.34-0.084-35.321-28.895-64.059-64.205-64.059z" />
<glyph unicode="&#x4f;" d="M256-42.651c-141.158 0-255.984 114.827-255.984 255.974 0 141.148 114.826 255.994 255.984 255.994 141.137 0 255.984-114.847 255.984-255.995 0-141.146-114.847-255.973-255.984-255.973zM256 439.194c-124.555 0-225.861-101.327-225.861-225.872 0-124.544 101.307-225.86 225.861-225.86 124.534 0 225.861 101.316 225.861 225.86 0 124.545-101.327 225.872-225.861 225.872zM233.147 127.505c-4.146 0-8.104 1.719-10.958 4.729l-70.287 74.672 21.915 20.655 59.143-62.819 117.555 129.482 22.291-20.26-128.514-141.532c-2.812-3.104-6.812-4.885-10.999-4.927-0.063 0-0.083 0-0.146 0z" />
<glyph unicode="&#x50;" d="M255.99-42.667c-68.375 0-132.658 26.63-181.009 74.983-48.352 48.356-74.981 112.645-74.981 181.028 0 68.373 26.629 132.656 74.981 181.008s112.636 74.981 181.009 74.981c68.381 0 132.672-26.628 181.025-74.981 48.354-48.351 74.985-112.634 74.985-181.008 0-68.383-26.631-132.674-74.984-181.027s-112.643-74.984-181.026-74.984zM255.99 439.015c-60.275 0-116.945-23.475-159.57-66.101s-66.101-99.296-66.101-159.57c0-60.284 23.475-116.961 66.101-159.59 42.625-42.627 99.295-66.103 159.57-66.103 60.285 0 116.961 23.476 159.588 66.104s66.104 99.304 66.104 159.589c0 60.275-23.477 116.945-66.104 159.57s-99.305 66.101-159.588 66.101zM305.791 281.54h30.318v-136.434h-30.318v136.434zM169.358 281.54h30.318v-136.434h-30.318v136.434z" />
<glyph unicode="&#x51;" d="M466.823 394.034h-421.647c-24.902 0-45.176-20.264-45.176-45.177v-271.048c0-24.922 20.274-45.178 45.176-45.178h421.647c24.902 0 45.177 20.256 45.177 45.178v271.048c0 24.913-20.274 45.177-45.177 45.177zM45.176 363.917h421.647c8.294 0 15.060-6.755 15.060-15.060v-42.666h-451.766v42.666c0 8.305 6.766 15.060 15.059 15.060zM466.823 62.75h-421.647c-8.293 0-15.059 6.745-15.059 15.060v198.263h451.766v-198.264c0-8.314-6.766-15.059-15.060-15.059zM85.529 151.849h75.294v-30.118h-75.294v30.118zM209.117 151.849h213.354v-30.118h-213.354v30.118z" />
<glyph unicode="&#x52;" d="M255.979-42.651c-141.116 0-255.942 114.827-255.942 255.974 0 141.148 114.826 255.995 255.942 255.995 141.158 0 255.984-114.847 255.984-255.995 0-141.147-114.826-255.974-255.984-255.974zM255.979 439.194c-124.534 0-225.841-101.327-225.841-225.872 0-124.544 101.307-225.86 225.841-225.86s225.902 101.316 225.902 225.86c0 124.545-101.367 225.872-225.902 225.872zM220.189 119.422v0c-11.457 0-23.061 9.021-23.061 26.249v135.314c0 17.238 11.604 26.259 23.061 26.259 5.125 0 10.229-1.646 15.166-4.864l112.161-69.496c5.791-4.041 11.166-10.916 11.166-19.562 0-8.645-5.375-15.509-10.375-19.051l-113.285-70.193c-4.605-3.020-9.708-4.656-14.833-4.656zM227.293 271.934l-0.062-117.232 94.703 58.643-94.641 58.589z" />
<glyph unicode="&#x53;" d="M256-42.651c-141.138 0-255.984 114.827-255.984 255.974 0 141.148 114.846 255.994 255.984 255.994 141.158 0 255.984-114.847 255.984-255.995 0-141.146-114.826-255.973-255.984-255.973zM256 439.194c-124.534 0-225.861-101.327-225.861-225.872 0-124.544 101.327-225.86 225.861-225.86 124.555 0 225.861 101.316 225.861 225.86 0 124.545-101.306 225.872-225.861 225.872zM168.047 228.385h180.697v-30.123h-180.697v30.123z" />
<glyph unicode="&#x54;" d="M24.423 268.072c-4.021 0-7.937 1.625-10.812 4.594-3.812 3.927-5.188 9.624-3.583 14.863 19.957 65.517 64.246 119.337 124.7 151.543 60.456 32.217 129.826 38.945 195.342 18.977 84.058-25.602 148.429-91.494 172.24-176.229l-28.999-8.135c-20.998 74.798-77.828 132.961-152.032 155.563-57.809 17.593-119.034 11.666-172.405-16.76-44.936-23.945-79.767-61.432-100.161-107.231l69.704 18.738 7.833-29.082-97.91-26.321c-1.292-0.353-2.605-0.52-3.917-0.52zM256.555-42.648c-24.707 0-49.81 3.594-74.621 11.166-84.057 25.613-148.449 91.484-172.239 176.218l28.997 8.135c20.999-74.798 77.829-132.939 152.012-155.553 109.743-33.478 225.716 20.937 271.963 122.69l-73.037-22.479-8.875 28.78 102.39 31.508c5.312 1.656 11.104 0.209 15.062-3.718 3.938-3.948 5.396-9.729 3.771-15.062-33.645-110.429-135.555-181.685-245.423-181.685z" />
<glyph unicode="&#x55;" d="M319.248 208.36c41.133 23.296 68.96 67.464 68.96 118.024 0 74.729-60.812 135.521-135.542 135.521s-135.541-60.791-135.541-135.521c0-51.453 28.814-96.291 71.146-119.243-106.89-29.477-186.625-126.778-188.271-241.964l30.125-0.416c1.729 122.082 103.062 221.416 225.896 221.416 122.875 0 224.188-99.334 225.875-221.416l30.104 0.416c-1.617 116.812-83.566 215.242-192.752 243.183zM147.25 326.385c0 58.125 47.291 105.417 105.416 105.417s105.417-47.292 105.417-105.417-47.292-105.417-105.417-105.417-105.416 47.292-105.416 105.417z" />
<glyph unicode="&#x56;" d="M256 469.307c-141.137 0-255.984-114.827-255.984-255.985 0-141.137 114.848-255.963 255.984-255.963 141.158 0 255.984 114.826 255.984 255.963 0 141.158-114.826 255.985-255.984 255.985v0zM256-12.538c-124.534 0-225.861 101.327-225.861 225.86 0 124.556 101.327 225.883 225.861 225.883 124.555 0 225.882-101.327 225.882-225.883 0-124.533-101.327-225.86-225.882-225.86v0zM241.3 306.113v-77.865l-77.866-0 0-30.11 77.865 0 0.015-77.88h30.108l-0.014 77.88 77.88-0.014v30.109l-77.88 0.015 0 77.865-30.109 0z" />
<glyph unicode="&#x57;" d="M361.539 101.77c-34.863 0-64.039-24.824-70.766-57.727h-90.195c-24.902 0-45.176 20.275-45.176 45.177v125.843h80.45v30.117h-80.45v81.313c32.607 6.951 57.176 35.932 57.176 70.599 0 39.833-32.412 72.235-72.235 72.235s-72.235-32.401-72.235-72.234c0-34.667 24.568-63.647 57.177-70.599v-237.274c0-41.51 33.784-75.294 75.294-75.294h90.529c7.178-32.314 35.98-56.588 70.432-56.588 39.824 0 72.236 32.392 72.236 72.195-0.001 39.844-32.413 72.237-72.237 72.237zM98.225 397.093c0 23.226 18.902 42.117 42.118 42.117s42.118-18.892 42.118-42.117-18.902-42.118-42.118-42.118-42.118 18.892-42.118 42.118zM361.539-12.545c-23.215 0-42.117 18.863-42.117 42.078 0 23.236 18.902 42.118 42.117 42.118s42.117-18.882 42.117-42.118c0-23.215-18.902-42.078-42.117-42.078zM376.598 245.181v67.303h-30.118v-67.303h-67.314v-30.118h67.314v-67.293h30.118v67.293h67.295v30.118z" />
<glyph unicode="&#x58;" d="M256 469.307c-141.137 0-255.984-114.827-255.984-255.985 0-141.137 114.848-255.963 255.984-255.963 141.158 0 255.984 114.826 255.984 255.963 0 141.158-114.826 255.985-255.984 255.985zM256-12.538c-124.534 0-225.861 101.327-225.861 225.86 0 124.556 101.327 225.883 225.861 225.883 124.555 0 225.882-101.327 225.882-225.883 0-124.533-101.327-225.86-225.882-225.86zM311.476 289.693l-55.059-55.059-55.060 55.059-21.29-21.291 55.059-55.058-55.059-55.080 21.29-21.29 55.060 55.079 55.059-55.079 21.29 21.29-55.059 55.080 55.059 55.058z" />
<glyph unicode="&#x59;" d="M366.861 101.77c-34.861 0-64.039-24.824-70.764-57.727h-90.726c-24.901 0-45.176 20.275-45.176 45.177v125.843h136.058c6.961-32.618 35.961-57.177 70.607-57.177 39.824 0 72.236 32.402 72.236 72.235 0 39.823-32.412 72.226-72.236 72.226-34.646 0-63.646-24.559-70.607-57.167h-136.057v81.313c32.607 6.951 57.176 35.932 57.176 70.599 0 39.833-32.411 72.235-72.234 72.235-39.824 0-72.235-32.402-72.235-72.235 0-34.667 24.568-63.647 57.177-70.599v-237.274c0-41.51 33.783-75.294 75.293-75.294h91.060c7.176-32.314 35.98-56.588 70.43-56.588 39.824 0 72.236 32.392 72.236 72.195-0.001 39.845-32.413 72.238-72.238 72.238zM366.861 272.229c23.217 0 42.119-18.892 42.119-42.107 0-23.226-18.902-42.118-42.119-42.118-23.215 0-42.117 18.893-42.117 42.118 0 23.216 18.902 42.107 42.117 42.107zM103.020 397.093c0 23.226 18.901 42.117 42.117 42.117 23.215 0 42.117-18.892 42.117-42.117s-18.902-42.118-42.117-42.118c-23.216 0-42.117 18.892-42.117 42.118zM366.861-12.545c-23.215 0-42.117 18.863-42.117 42.078 0 23.236 18.902 42.118 42.117 42.118 23.217 0 42.119-18.882 42.119-42.118 0-23.215-18.902-42.078-42.119-42.078z" />
<glyph unicode="&#x5a;" d="M255.941-42.667l-149.958 149.958c-82.679 82.689-82.679 217.237 0 299.916 40.062 40.061 93.315 62.126 149.978 62.126 56.644 0 109.897-22.065 149.919-62.116 40.081-40.051 62.146-93.314 62.146-149.958s-22.064-109.888-62.146-149.948l-149.939-149.978zM255.961 439.578c-48.701 0-94.496-18.965-128.939-53.408-71.075-71.085-71.075-186.746 0-257.84l128.92-128.921 128.901 128.939c34.443 34.443 53.428 80.22 53.428 128.911 0 48.701-18.984 94.477-53.428 128.92-34.405 34.433-80.181 53.399-128.882 53.399zM252.745 162.908c-49.225 0-89.266 40.031-89.266 89.256 0 49.224 40.041 89.266 89.266 89.266s89.266-40.042 89.266-89.266c0-49.225-40.041-89.256-89.266-89.256zM252.745 311.674c-32.816 0-59.51-26.694-59.51-59.51s26.693-59.511 59.51-59.511 59.511 26.694 59.511 59.511c0 32.816-26.694 59.51-59.511 59.51z" />
<glyph unicode="&#x5b;" d="M491.402 263.137l-185.59 185.591c-13.266 13.292-30.96 20.598-49.812 20.598s-36.547-7.307-49.811-20.599l-185.591-185.59c-27.464-27.465-27.464-72.156 0-99.621l185.592-185.591c13.264-13.292 30.959-20.585 49.811-20.585s36.545 7.293 49.811 20.585l185.591 185.591c27.463 27.464 27.463 72.156-0.001 99.621zM461.517 193.402l-185.592-185.591c-5.477-5.477-12.715-8.201-19.924-8.201-7.211 0-14.448 2.725-19.924 8.201l-185.592 185.591c-10.953 10.952-10.953 28.896 0 39.848l121.664 121.65 71.99-72.005v-191.646h42.27v149.376l70.423-70.395 29.886 29.872-184.684 184.684 34.043 34.056c5.476 5.477 12.713 8.215 19.924 8.215 7.209 0 14.448-2.738 19.924-8.215l185.592-185.592c10.952-10.952 10.952-28.896 0-39.848z" />
<glyph unicode="&#x5c;" d="M465.656 391.333h-216.97v31.686c0 28.143-18.2 46.314-46.343 46.314h-146.286c-31.971 0-56.057-19.914-56.057-46.314v-409.6c0-28.315 27.771-56.086 56.057-56.086h409.6c26.43 0 46.344 24.114 46.344 56.086v331.571c-0.001 28.143-18.201 46.343-46.345 46.343zM56.057 425.447h146.286c1.028 0 1.886-0.171 2.313-0.028 0.086-0.6 0.144-1.372 0.144-2.4v-75.571h260.856c1.029 0 1.915-0.171 2.314-0.028 0.086-0.6 0.144-1.372 0.144-2.429v-41.429h-424.228v41.429l-0.429 76.8c0.857 1.085 5.715 3.656 12.6 3.656zM464.828 1.219h-408.771c-4.057 0.028-12.143 8.144-12.171 12.2v246.257h424.229v-246.257c-0.001-6.143-2.058-10.686-3.287-12.2zM384.057 117.075c8.4 11.086 13.572 24.744 13.572 39.715 0 36.486-29.686 66.171-66.172 66.171-36.457 0-66.114-29.685-66.114-66.171 0-14.971 5.171-28.629 13.571-39.715-8.742-5.628-16.343-12.713-22.914-20.742-6.572 8.029-14.143 15.143-22.914 20.742 8.399 11.086 13.57 24.744 13.57 39.715 0 36.486-29.686 66.171-66.171 66.171-36.457 0-66.114-29.685-66.114-66.171 0-14.971 5.172-28.629 13.572-39.715-26.744-17.142-44.857-46.77-45.314-80.542l43.885-0.629c0 0.114 0.029 0.2 0.029 0.314 0.6 28.515 25.199 52.543 53.942 52.543 27.458 0 50.915-21.886 53.515-48.628-0.057-1.229-0.371-2.372-0.4-3.601h0.857c0-0.114 0.028-0.2 0.028-0.314 0-0.085 0.028-0.2 0.028-0.286l21.457 0.286 21.515-0.314c0 0.114 0.028 0.2 0.028 0.314 0.601 28.515 25.2 52.543 53.943 52.543 28.828 0 53.457-24.058 54-52.543 0-0.085 0.028-0.2 0.028-0.286l43.886 0.572c-0.456 33.801-18.542 63.429-45.313 80.571zM180.485 179.075c12.314 0 22.286-9.971 22.286-22.285 0-12.257-9.972-22.285-22.286-22.285-12.286 0-22.229 10.028-22.229 22.285 0.001 12.314 9.943 22.285 22.229 22.285zM331.457 179.075c12.314 0 22.285-9.971 22.285-22.285 0-12.257-9.971-22.285-22.285-22.285-12.285 0-22.229 10.028-22.229 22.285 0.001 12.314 9.944 22.285 22.229 22.285z" />
<glyph unicode="&#x5d;" d="M442.857 437.961h-80.314c-2.629 17.601-17.199 31.372-35.514 31.372h-142.058c-18.314 0-32.885-13.771-35.514-31.372h-80.314c-20.171 0-36.571-16.399-36.571-36.571v-407.485c0-20.172 16.4-36.571 36.571-36.571h373.714c20.172 0 36.57 16.399 36.57 36.571v407.485c0.001 20.172-16.398 36.571-36.57 36.571zM192.286 425.447h127.429v-26.086h-127.429v26.086zM435.543 1.218h-359.085v392.857h71.943v-2.028c0-20.172 16.399-36.571 36.57-36.571h142.058c20.17 0 36.57 16.399 36.57 36.571v2.028h71.943v-392.857zM250.257 202.189h-42.457l57.628 57.629-31.027 31.029-110.172-110.171 111.028-111.030 31.028 31.030-57.628 57.628h171.687v43.885z" />
<glyph unicode="&#x5e;" d="M512 8.808h-31.031c0 236.828-192.666 429.495-429.494 429.495v31.030c253.939 0 460.525-206.586 460.525-460.525zM359.677 8.808h-31.030c0 152.849-124.344 277.192-277.172 277.192v31.030c169.939 0 308.202-138.283 308.202-308.222zM99.919 126.101c37.96 0 68.849-30.909 68.849-68.889 0-37.939-30.889-68.849-68.849-68.849-37.979 0-68.889 30.909-68.889 68.849 0 37.979 30.909 68.889 68.889 68.889zM99.919 157.131c-55.192 0-99.919-44.727-99.919-99.919 0-55.151 44.727-99.879 99.919-99.879 55.151 0 99.879 44.728 99.879 99.879 0 55.192-44.728 99.919-99.879 99.919v0z" />
<glyph unicode="&#x5f;" d="M446.584 469.333h-330.834c-45.396 0-82.333-36.917-82.333-82.312v-347.334c0-45.416 36.938-82.354 82.333-82.354h362.834v512h-32zM65.417 329.437v57.584c0 27.729 22.583 50.312 50.333 50.312h330.834v-332.833h-330.834c-27.75 0-50.333 22.542-50.333 50.334v174.603zM446.584-10.667h-330.834c-27.75 0-50.333 22.583-50.333 50.354v50.479c13.958-10.896 31.292-17.667 50.333-17.667h330.834v-83.166zM146.292 363.395h228.312v-32h-228.312v32zM146.292 269.916h228.312v-32h-228.312v32z" />
<glyph unicode="&#x60;" d="M394.172 38.747h-276.343c-64.972 0-117.829 52.857-117.829 117.828 0 62.473 48.886 113.758 110.4 117.601 16.314 66.086 75.714 113.743 145.6 113.743s129.285-47.657 145.6-113.743c61.514-3.843 110.4-55.128 110.4-117.601 0-64.971-52.857-117.828-117.828-117.828zM117.829 230.519c-40.771 0-73.943-33.172-73.943-73.943s33.171-73.943 73.943-73.943h276.343c40.771 0 73.942 33.171 73.942 73.942s-33.171 73.943-73.942 73.943c-2.829 0-5.601-0.186-8.314-0.514-5.887-0.644-11.657 0.985-16.229 4.643s-7.515 8.985-8.143 14.8c-5.829 53.929-51.172 94.586-105.486 94.586s-99.657-40.657-105.486-94.586c-0.628-5.814-3.571-11.143-8.143-14.785-4.572-3.644-10.458-5.301-16.2-4.657-2.742 0.314-5.514 0.514-8.342 0.514z" />
<glyph unicode="&#x61;" d="M300.875-42.667c-0.75 0-1.531 0.047-2.344 0.109-9.719 1.031-17.656 8.25-19.625 17.844l-78.093 382.344-54.156-171.422c-2.938-9.344-11.594-15.688-21.375-15.688h-93.688v44.891h77.219l75.281 238.266c3.062 9.719 12.25 16 22.562 15.641 10.219-0.531 18.75-7.906 20.781-17.922l81.219-397.563 64.531 148.094c3.562 8.188 11.625 13.485 20.562 13.485h86.656v-44.891h-71.969l-86.969-199.703c-3.623-8.251-11.717-13.485-20.592-13.485z" />
<glyph unicode="&#x62;" d="M460.812 469.333h-409.624c-28.219 0-51.188-22.969-51.188-51.203v-409.578c0-28.25 22.969-51.219 51.188-51.219h409.625c28.218 0 51.187 22.969 51.187 51.219v409.578c0 28.234-22.969 51.203-51.188 51.203zM51.188 425.442h409.625c4.031 0 7.312-3.281 7.312-7.312v-56.062h-424.25v56.062c0 4.031 3.281 7.312 7.313 7.312zM460.812 1.239h-409.624c-4.031 0-7.312 3.25-7.312 7.312v309.626h424.25v-309.625c-0.001-4.063-3.282-7.313-7.314-7.313zM112.75 206.349l46.344-46.344-45.282-45.266 31.032-31.031 76.312 76.297-77.375 77.375zM265.781 118.239h107.25v-43.875h-107.25v43.875z" />
<glyph unicode="&#x63;" d="M281 428.911l15.406-75.609c10.531-3.062 20.594-7.266 30-12.438l65.344 41.578 34.406-34.375-42.656-64.359c5.25-9.422 9.438-19.453 12.438-29.984l75.625-16.812v-48.594l-75.625-15.406c-3-10.547-7.188-20.578-12.438-29.984l41.594-65.359-34.312-34.344-64.407 42.608c-9.438-5.234-19.469-9.453-30-12.453l-16.812-75.625h-48.563l-15.438 75.609c-10.5 3.078-20.562 7.234-29.938 12.438l-65.406-41.594-34.375 34.328 42.594 64.422c-5.188 9.375-9.375 19.453-12.375 29.984l-75.656 16.812v48.547l75.656 15.422c3 10.578 7.188 20.609 12.375 29.984l-41.531 65.391 34.312 34.344 64.406-42.609c9.438 5.203 19.438 9.391 29.938 12.469l16.812 75.609h48.626zM256 170.63c23.562 0 42.687 19.094 42.687 42.672 0 23.609-19.125 42.734-42.687 42.734-23.625 0-42.75-19.125-42.75-42.734 0-23.578 19.125-42.672 42.75-42.672zM281 469.333h-48.625c-18.969 0-35.344-13.156-39.469-31.656l-10.312-46.391-39.094 25.859c-6.812 4.516-14.562 6.719-22.281 6.719-10.438 0-20.812-4.031-28.594-11.844l-34.312-34.343c-13.406-13.391-15.688-34.281-5.531-50.266l25.5-40.125-45.938-9.375c-18.812-3.844-32.344-20.39-32.344-39.609v-48.547c0-18.953 13.156-35.344 31.656-39.469l46.375-10.297-25.906-39.156c-10.594-16.031-8.438-37.297 5.125-50.875l34.375-34.344c7.812-7.812 18.156-11.828 28.594-11.828 7.5 0 15.031 2.062 21.688 6.312l40.125 25.516 9.375-45.938c3.843-18.812 20.375-32.343 39.593-32.343h48.562c18.938 0 35.344 13.156 39.438 31.641l10.344 46.438 39.156-25.891c6.812-4.516 14.562-6.719 22.281-6.719 10.438 0 20.781 4.031 28.594 11.844l34.312 34.344c13.375 13.406 15.688 34.297 5.531 50.297l-25.531 40.062 45.969 9.359c18.813 3.828 32.344 20.406 32.344 39.609v48.594c0 18.953-13.156 35.344-31.656 39.469l-46.375 10.297 25.875 39.062c10.625 16.047 8.5 37.344-5.125 50.938l-34.438 34.359c-7.781 7.797-18.125 11.828-28.531 11.828-7.5 0-15.031-2.078-21.719-6.328l-40.062-25.5-9.375 45.953c-3.844 18.813-20.375 32.344-39.594 32.344v0z" />
<glyph unicode="&#x64;" d="M277.563 40.366v139.083h-43.125v-140.082l-80.941 80.94-30.47-30.501 132.474-132.473 133.473 133.473-30.47 30.501zM462.007 373.502h-107.784v50.314c0 27.657-17.876 45.517-45.502 45.517h-249.196c-31.407 0-55.064-19.563-55.064-45.517v-297.072c0-27.813 27.282-55.096 55.064-55.096h33.595v43.127h-33.595c-3.969 0.031-11.938 8-11.938 11.969l-0.437 295.884c0.844 1.047 5.625 3.595 12.375 3.595h249.195c1 0.016 1.781-0.031 2.219-0.047 0.094-0.562 0.156-1.344 0.156-2.359v-93.425h150.911c1.031 0 1.844-0.031 2.281-0.047 0.094-0.562 0.125-1.328 0.125-2.344v-201.257c0-6.75-2.531-11.562-2.406-11.969h-43.126v-43.127h43.126c25.97 0 45.532 23.688 45.532 55.096v201.257c0.001 27.641-17.874 45.501-45.531 45.501z" />
<glyph unicode="&#x65;" d="M256-31.698c-141.156 0-256 114.844-256 256 0 83 40.531 161.188 108.469 209.141l25.312-35.859c-56.312-39.734-89.906-104.516-89.906-173.281 0-116.938 95.156-212.125 212.125-212.125s212.125 95.188 212.125 212.125c0 67.938-32.969 132.281-88.25 172.125l25.656 35.609c66.657-48.095 106.469-125.735 106.469-207.735 0-141.157-114.844-256-256-256zM235.625 458.364h43.875v-234.062h-43.875v234.062z" />
<glyph unicode="&#x66;" d="M298.594 469.333h-198.625c-28.219 0-51.188-22.969-51.188-51.203v-409.578c0-28.25 22.969-51.219 51.188-51.219h312.062c28.219 0 51.188 22.969 51.188 51.219v296.156l-164.625 164.625zM311.469 394.411l76.844-76.844h-60.844c-8.844 0-16 7.172-16 16v60.844zM412.031 1.239h-312.062c-4.031 0-7.312 3.25-7.312 7.312v409.579c0 4.031 3.281 7.312 7.312 7.312h167.594v-91.875c0-33.016 26.875-59.891 59.906-59.891h91.875v-265.125c0-4.062-3.282-7.312-7.313-7.312z" />
<glyph unicode="&#x67;" d="M404.812 251.771c18.562 17.656 30.312 42.422 30.312 70.031 0 53.359-43.406 96.75-96.781 96.75-16.594 0-32-4.578-45.656-11.969 12.75-9.422 24-20.656 33.188-33.547 4.031 0.984 8.156 1.641 12.469 1.641 29.188 0 52.906-23.719 52.906-52.875 0-24.172-16.375-44.375-38.562-50.688-1.781-17.859-6.375-34.781-13.844-50.281 0.531 0.016 1.062 0.172 1.594 0.172 68.25 0 126.719-57.297 127.688-125.141l43.874 0.625c-1 68.813-45.875 129.532-107.188 155.282zM276 198.458c25.188 20.953 41.594 52.125 41.594 87.359 0 62.891-51.125 114.047-114 114.047s-114.063-51.156-114.063-114.047c0-35.969 17.094-67.734 43.188-88.641-76.375-29.312-131.5-102.624-132.719-188.437l43.906-0.625c1.219 87.656 74 158.969 162.219 158.969s161-71.312 162.25-158.969l43.906 0.625c-1.281 87.125-58.062 161.344-136.281 189.719zM203.594 355.989c38.656 0 70.125-31.484 70.125-70.172s-31.469-70.156-70.125-70.156c-38.688 0-70.156 31.469-70.156 70.156s31.468 70.172 70.156 70.172z" />
<glyph unicode="&#x68;" d="M256.028-7.903l-44.114 0.058c-134.685-0.001-211.914 75.713-211.914 207.699 0 40.457 12 74.914 36.6 105-2.485 25.843 2.486 72.329 19.115 114.186l6.171 15.529 16.628-1.814c2.029-0.229 48.744-5.814 117.771-51.229 21.457 4.028 48.086 4.514 59.715 4.514s38.258-0.485 59.715-4.514c69.027 45.414 115.771 51 117.799 51.229l16.629 1.814 6.172-15.529c16.629-41.843 21.6-88.343 19.086-114.186 24.6-30.086 36.6-64.557 36.6-105 0-131.986-77.229-207.7-211.914-207.7l-44.059-0.057zM90.314 385.083c-11.715-38.742-11.114-73.371-9.6-79.742l5.256-12.886-9.856-8.986c-22-23.886-32.229-50.457-32.229-83.614 0-108.7 56.543-163.814 168.028-163.814l44.087-0.058 44.086 0.057c111.485 0 168.028 55.114 168.028 163.814 0 33.157-10.229 59.729-32.229 83.614l-9.429 10.229 5.229 12.886c1.172 5.3 1.715 39.786-9.971 78.515-17.943-5.457-49.4-17.843-89.172-45.143l-8.429-5.786-9.856 2.729c-23.486 6.485-93.029 6.485-116.516 0l-9.856-2.729-8.429 5.786c-39.741 27.272-71.142 39.671-89.142 45.128zM166.742 208.341c10.857 0 23.372-0.887 36.629-1.814 15.686-1.115 33.429-2.372 51.887-2.372 0.113 0 0.229 0 0.342 0h1.142c18.458 0 36.229 1.257 51.887 2.372 13.285 0.928 25.8 1.814 36.686 1.814 22.114 0 28.857-3.814 31.971-6.687 9.372-8.614 13.543-18.028 13.543-30.528 0-40.629-9.028-65.285-134.086-65.285h-1.484c-125.058 0-134.086 24.656-134.086 65.285 0 12.5 4.171 21.914 13.543 30.514 3.112 2.872 9.855 6.701 32.026 6.701zM345.285 252.227c-26.171 0-56.371-4.187-88.543-4.187-0.229 0-0.457 0.015-0.742 0.029-0.229-0.015-0.514-0.029-0.742-0.029-32.144 0-62.344 4.187-88.516 4.187-24.742 0-45.885-3.729-61.714-18.258-19.515-17.929-27.743-39.558-27.743-62.843 0-97.229 77.915-109.172 177.973-109.172h1.484c100.058 0 177.973 11.943 177.973 109.172 0 23.285-8.229 44.914-27.744 62.843-15.799 14.528-36.943 18.258-61.686 18.258v0zM200.543 158.354c0-12.801-10.371-23.172-23.172-23.172s-23.171 10.371-23.171 23.172c0 12.8 10.371 23.172 23.171 23.172 12.801 0 23.172-10.372 23.172-23.172zM360.258 158.354c0-12.801-10.372-23.172-23.172-23.172s-23.172 10.371-23.172 23.172c0 12.8 10.371 23.172 23.172 23.172 12.8 0 23.172-10.372 23.172-23.172z" />
<glyph unicode="&#x69;" d="M256 119.693c-51.655 0-93.633 42.033-93.633 93.646 0 51.628 41.978 93.634 93.633 93.634 51.6 0 93.634-42.006 93.634-93.634 0-51.612-42.034-93.646-93.634-93.646zM256 263.758c-27.798 0-50.417-22.62-50.417-50.418 0-27.797 22.619-50.432 50.417-50.432s50.418 22.635 50.418 50.432c0 27.798-22.62 50.418-50.418 50.418zM256 19.42c-137.495 0-256 130.068-256 193.92s118.505 193.906 256 193.906 256-130.054 256-193.906c0-63.852-118.505-193.92-256-193.92zM256 357.785c-116.226 0-206.538-115.213-206.538-144.445s90.312-144.459 206.538-144.459 206.539 115.227 206.539 144.459-90.313 144.445-206.539 144.445z" />
<glyph unicode="&#x6a;" d="M293.051 292.357l-32.847-32.847-93.792 93.792v-249.936c0-38.412 31.289-69.687 69.701-69.687h275.887v-46.457h-275.887c-64.076 0-116.158 52.083-116.158 116.144v244.37l-87.108-87.047-32.847 32.848 145.966 145.905 147.085-147.085z" />
<glyph unicode="&#x6b;" d="M256.006 428.154c1.687 0 3.343-1.797 4.656-5.391l50.842-143.214c2.594-7.172 10.906-13.047 18.531-13.047h133.776c7.625 0 8.875-3.766 2.781-8.343l-109.652-82.747c-6.062-4.578-9.438-14.343-7.438-21.718l39.874-147.808c1.312-4.75 0.375-7.375-2.094-7.375-1.344 0-3.156 0.781-5.281 2.438l-114.996 87.81c-3.031 2.312-7 3.469-11 3.469s-8-1.156-11.031-3.469l-114.934-87.81c-2.125-1.656-3.938-2.438-5.281-2.438-2.438 0-3.406 2.625-2.094 7.375l39.874 147.808c2 7.375-1.343 17.14-7.437 21.718l-109.683 82.748c-6.093 4.577-4.843 8.343 2.781 8.343h133.808c7.656 0 15.938 5.875 18.5 13.047l50.873 143.214c1.25 3.593 2.938 5.39 4.625 5.39zM256.006 469.716c-15.5 0-35.186-8.688-43.811-33.077l-45.687-128.574h-118.307c-26.28 0-40.967-15.922-45.936-30.827-5-14.906-2.844-36.468 18.156-52.279l98.277-74.139-36.155-134.122c-5.781-21.155 2.062-35.717 7.219-42.498 8.375-10.938 21.124-17.25 34.998-17.25 10.719 0 21 3.688 30.5 10.938l100.746 76.997 100.778-76.997c9.499-7.25 19.78-10.938 30.499-10.938 13.874 0 26.624 6.312 34.999 17.25 5.187 6.781 12.999 21.343 7.218 42.623l-36.154 133.996 98.277 74.17c20.969 15.78 23.094 37.342 18.125 52.248-5 14.905-19.688 30.827-45.937 30.827h-118.308l-45.686 128.622c-8.718 24.389-28.342 33.030-43.811 33.030v0z" />
<glyph unicode="&#x6c;" d="M255.442-42.663c-55.047 0-108.375 17.688-153.188 51.344-54.687 41.062-90.108 100.937-99.733 168.625-11.422 80.375 16.453 162.313 74.578 219.156l30.687-31.375c-48.171-47.094-71.281-115-61.796-181.625 7.969-56.062 37.312-105.688 82.609-139.688 45.328-34.031 101.125-48.406 157.25-40.375 115.781 16.438 196.594 124.031 180.125 239.813-14.594 102.594-100.766 177.719-200.782 182.032l31.75-42.5-35.188-26.25-56.329 75.406c-4.625 6.188-5.656 14.406-2.672 21.562 2.969 7.125 9.5 12.188 17.172 13.281 139.594 19.938 269.61-77.625 289.5-217.344 19.875-139.75-77.641-269.594-217.406-289.469-12.217-1.718-24.436-2.593-36.577-2.593z" />
<glyph unicode="&#x6d;" d="M465.656 391.302h-216.968v31.687c0 28.156-18.188 46.344-46.344 46.344h-146.282c-31.968 0-56.062-19.906-56.062-46.344v-409.562c0-28.313 27.781-56.094 56.062-56.094h409.594c26.438 0 46.344 24.094 46.344 56.094v331.562c0 28.125-18.188 46.313-46.344 46.313zM56.062 425.427h146.281c1.031 0.031 1.875 0 2.312 0 0.094-0.594 0.156-1.375 0.156-2.438v-75.562h260.844c1.031 0 1.875 0 2.312-0.031 0.094-0.594 0.156-1.344 0.156-2.406v-41.438h-424.248v41.438l-0.406 76.812c0.843 1.062 5.719 3.625 12.593 3.625zM464.875 1.239h-408.813c-4.062 0-12.156 8.094-12.188 12.188v246.25h424.25v-246.25c0.001-6.188-2.062-10.688-3.249-12.188z" />
<glyph unicode="&#x6e;" d="M413.512 381.614c-42.096 0-78.176-26.472-92.454-63.648l-122.526 36.755c-0.498 54.065-44.594 97.957-98.988 98.065-54.438 0-98.875-44.312-99-98.812-0.094-54.562 44.219-99.078 98.812-99.203 0 0 0.188 0 0.219 0 4.182 0 8.304 0.264 12.352 0.771l32.915-103.065c-24.003-18.045-39.586-46.73-39.642-78.972-0.125-54.578 44.188-99.094 98.781-99.219 0.031 0 0.188 0 0.219 0 54.469 0 98.875 44.312 99.031 98.812 0.037 21.38-6.743 41.21-18.296 57.435l74.171 69.421c15.564-10.285 34.185-16.304 54.187-16.355 0.031 0 0.219 0 0.25 0 54.469 0 98.875 44.328 99 98.797 0.094 54.593-44.25 99.109-99.031 99.218zM99.45 299.286c-30.031 0.062-54.438 24.578-54.406 54.594 0.094 30 24.531 54.391 54.625 54.391 30.031-0.047 54.438-24.547 54.375-54.609-0.062-29.984-24.5-54.375-54.469-54.375zM153.736 270.967c15.075 9.903 27.303 23.805 35.153 40.187l126.064-37.824c1.399-14.919 6.123-28.89 13.422-41.161l-76.892-71.945c-14.055 7.668-30.173 12.044-47.314 12.078-6.27 0-12.404-0.594-18.355-1.717l-32.078 100.382zM204.106 18.802c-30.062 0.062-54.469 24.562-54.406 54.609 0.062 29.984 24.531 54.375 54.594 54.375 30.062-0.047 54.438-24.562 54.438-54.594-0.094-30-24.562-54.391-54.531-54.391zM413.418 228.114c-30.030 0.062-54.437 24.562-54.374 54.625 0.062 29.969 24.5 54.375 54.593 54.375 30.031-0.062 54.438-24.562 54.375-54.625-0.062-29.984-24.5-54.375-54.469-54.375z" />
<glyph unicode="&#x6f;" d="M256-42.667c-141.156 0-256 114.844-256 256s114.844 256 256 256 256-114.844 256-256-114.844-256-256-256zM256 425.442c-116.938 0-212.094-95.156-212.094-212.109s95.156-212.109 212.094-212.109c116.969 0 212.125 95.156 212.125 212.109s-95.156 212.109-212.125 212.109zM233.812 101.099c-5.969 0-11.719 2.438-15.844 6.766l-97.562 101.812 31.688 30.375 79.656-83.141 109.312 146.047 35.156-26.281-124.843-166.766c-3.875-5.172-9.781-8.375-16.25-8.766-0.437-0.031-0.875-0.046-1.313-0.046z" />
<glyph unicode="&#x70;" d="M255.971-42.667c-68.373 0-132.652 26.629-180.996 74.981-48.343 48.352-74.967 112.642-74.967 181.027 0 68.378 26.624 132.663 74.968 181.014 48.344 48.349 112.623 74.978 180.995 74.978 68.384 0 132.677-26.628 181.033-74.977 48.357-48.351 74.988-112.637 74.988-181.016 0-68.386-26.631-132.676-74.988-181.029-48.356-48.349-112.647-74.978-181.033-74.978zM255.971 424.21c-56.318 0-109.265-21.934-149.086-61.762-39.823-39.826-61.753-92.781-61.753-149.107 0-56.334 21.931-109.293 61.754-149.123 39.821-39.828 92.767-61.762 149.086-61.762 56.333 0 109.294 21.935 149.126 61.765 39.834 39.829 61.771 92.788 61.771 149.12 0 56.324-21.938 109.278-61.77 149.106s-92.794 61.763-149.128 61.763zM287.58 281.466h45.123v-120.328h-45.123v120.328zM167.252 281.466h45.124v-120.328h-45.124v120.328z" />
<glyph unicode="&#x71;" d="M460.781 396.192h-409.593c-28.219 0-51.188-22.968-51.188-51.203v-263.328c0-28.219 22.969-51.188 51.188-51.188h409.594c28.25 0 51.219 22.969 51.219 51.188v263.328c-0.001 28.235-22.97 51.203-51.22 51.203zM51.188 352.302h409.594c4.062 0 7.344-3.281 7.344-7.312v-34.125h-424.251v34.125c0 4.031 3.281 7.312 7.313 7.312zM460.781 74.349h-409.593c-4.031 0-7.312 3.312-7.312 7.312v185.313h424.25v-185.312c-0.001-4.001-3.282-7.313-7.345-7.313zM90.406 160.911h73.125v-43.875h-73.125v43.875zM210.469 160.911h207.25v-43.875h-207.25v43.875z" />
<glyph unicode="&#x72;" d="M256-42.667c-141.156 0-256 114.844-256 256s114.844 256 256 256 256-114.844 256-256-114.844-256-256-256zM256 425.442c-116.969 0-212.125-95.156-212.125-212.109s95.156-212.109 212.125-212.109c116.938 0 212.094 95.156 212.094 212.109s-95.156 212.109-212.094 212.109zM355.562 218.942l-142.781 88.422c-10.375 6.844-18.875 1.812-18.875-11.141v-171.656c0-12.984 8.5-17.984 18.875-11.156l142.781 88.406c0 0 5.062 3.578 5.062 8.578 0.001 4.985-5.062 8.547-5.062 8.547z" />
<glyph unicode="&#x73;" d="M256-42.667c-141.156 0-256 114.844-256 256s114.844 256 256 256 256-114.844 256-256-114.844-256-256-256zM256 425.442c-116.953 0-212.109-95.156-212.109-212.109s95.156-212.109 212.109-212.109 212.109 95.156 212.109 212.109-95.156 212.109-212.109 212.109zM143.625 243.021h204.797v-43.891h-204.797v43.891z" />
<glyph unicode="&#x74;" d="M157.097 257.629l-126.312 1.625c-6.906 0.078-13.359 3.422-17.422 9-4.078 5.562-5.281 12.719-3.281 19.328 19.953 65.5 64.234 119.312 124.672 151.516 60.453 32.187 129.827 38.953 195.296 18.968 84.047-25.578 148.422-91.438 172.219-176.172l-42.234-11.844c-19.735 70.235-73.11 124.845-142.766 146.048-54.266 16.547-111.765 10.953-161.89-15.719-41.203-21.969-73.328-56.031-92.656-97.656l94.953-1.203-0.579-43.891zM257.004-42.668c-25.11 0-50.36 3.734-75.063 11.266-84.063 25.609-148.422 91.468-172.203 176.172l42.234 11.859c19.719-70.219 73.094-124.828 142.766-146.062 54.25-16.578 111.75-10.969 161.875 15.719 41.484 22.125 73.797 56.531 93.078 98.562l-98.391 4.125 1.859 43.859 128.688-5.422c6.781-0.281 13.047-3.688 16.969-9.234 3.938-5.547 5.078-12.578 3.094-19.078-19.953-65.5-64.234-119.328-124.672-151.531-37.641-20.047-78.766-30.235-120.234-30.235z" />
<glyph unicode="&#x75;" d="M334.776 207.441c34.499 25.312 56.942 66.133 56.942 112.103 0 76.625-62.344 138.969-138.969 138.969s-138.968-62.344-138.968-138.969c0-46.879 23.338-88.408 59.003-113.591-99.037-34.234-171.251-127.629-172.784-237.206l43.875-0.594c1.625 114.625 96.75 207.891 212.125 207.891s210.5-93.266 212.125-207.891l43.875 0.594c-1.556 111.208-75.912 205.747-177.224 238.694zM252.75 414.622c52.438 0 95.062-42.656 95.062-95.078 0-52.438-42.625-95.094-95.062-95.094s-95.094 42.656-95.094 95.094c0 52.422 42.656 95.078 95.094 95.078z" />
<glyph unicode="&#x76;" d="M256 469.333c-141.156 0-256-114.844-256-256s114.844-256 256-256c141.156 0 256 114.844 256 256s-114.844 256-256 256v0zM256 1.224c-116.953 0-212.109 95.156-212.109 212.109s95.156 212.109 212.109 212.109c116.953 0 212.109-95.156 212.109-212.109s-95.156-212.109-212.109-212.109v0zM234.42 358.069l0.012-122.871-122.882 0-0.001-43.885h122.882v-122.882l43.885 0-0 122.882 122.871-0.012v43.885l-122.882 0-0 122.881h-43.885z" />
<glyph unicode="&#x77;" d="M362.188 112.278c-35.25 0-64.75-23.812-74.125-56.062h-59.281c-32.812 0-59.531 29.5-59.531 65.812v85.672h70.812v43.875h-70.813v66.344c31.969 9.531 55.531 38.875 55.531 73.922 0 42.734-34.781 77.484-77.5 77.484-42.688 0-77.469-34.75-77.469-77.484 0-35.062 23.562-64.391 55.531-73.938v-195.875c0-60.5 46.406-109.719 103.438-109.719h59.625c9.719-31.719 38.938-54.969 73.781-54.969 42.719 0 77.469 34.75 77.469 77.438 0 42.75-34.75 77.5-77.468 77.5zM113.688 391.841c0 18.531 15.094 33.594 33.594 33.594 18.531 0 33.625-15.062 33.625-33.594s-15.094-33.594-33.625-33.594c-18.501 0-33.594 15.063-33.594 33.594zM362.188 1.216c-18.531 0-33.594 15.062-33.594 33.562 0 18.562 15.062 33.625 33.594 33.625 18.5 0 33.594-15.062 33.594-33.625-0.001-18.5-15.094-33.562-33.594-33.562zM384.125 251.575v58.078h-43.875v-58.078h-58.094v-43.875h58.094v-58.078h43.875v58.078h58.063v43.875z" />
<glyph unicode="&#x78;" d="M256 469.333c-141.156 0-256-114.844-256-256s114.844-256 256-256 256 114.844 256 256-114.844 256-256 256zM256 1.224c-116.953 0-212.109 95.156-212.109 212.109s95.156 212.109 212.109 212.109 212.109-95.156 212.109-212.109-95.156-212.109-212.109-212.109zM343.281 331.255l-86.875-86.891-86.89 86.891-31.032-31.031 86.891-86.891-86.891-86.891 31.032-31.031 86.89 86.891 86.875-86.891 31.031 31.031-86.89 86.891 86.89 86.891z" />
<glyph unicode="&#x79;" d="M363.703 112.278c-35.25 0-64.75-23.812-74.125-56.062h-59.812c-32.812 0-59.5 29.5-59.5 65.812v85.672h119.5c9.531-32 38.875-55.547 73.938-55.547 42.688 0 77.469 34.75 77.469 77.484 0 42.719-34.781 77.469-77.469 77.469-35.062 0-64.406-23.547-73.938-55.531h-119.5v66.328c31.969 9.547 55.531 38.875 55.531 73.938 0 42.734-34.781 77.484-77.469 77.484-42.719 0-77.5-34.75-77.5-77.484 0-35.047 23.562-64.391 55.531-73.922v-195.891c0-60.5 46.375-109.719 103.406-109.719h60.156c9.719-31.719 38.938-54.969 73.781-54.969 42.688 0 77.469 34.75 77.469 77.438 0.001 42.75-34.78 77.5-77.468 77.5zM363.703 263.231c18.5 0 33.594-15.078 33.594-33.594 0-18.531-15.094-33.594-33.594-33.594-18.531 0-33.625 15.062-33.625 33.594 0 18.516 15.094 33.594 33.625 33.594zM114.703 391.841c0 18.531 15.094 33.594 33.625 33.594 18.5 0 33.594-15.062 33.594-33.594s-15.094-33.594-33.594-33.594c-18.531 0-33.625 15.063-33.625 33.594zM363.703 1.216c-18.531 0-33.625 15.062-33.625 33.562 0 18.562 15.094 33.625 33.625 33.625 18.5 0 33.594-15.062 33.594-33.625 0-18.5-15.094-33.562-33.594-33.562z" />
<glyph unicode="&#x7a;" d="M255.955-42.66l-149.968 149.939c-82.676 82.69-82.676 217.245 0 299.921 40.061 40.061 93.315 62.126 149.968 62.126 56.651 0 109.906-22.052 149.939-62.112 40.061-40.061 62.125-93.315 62.125-149.967 0-56.638-22.064-109.893-62.125-149.938l-149.939-149.969zM255.955 426.206c-45.143 0-87.561-17.574-119.48-49.493-65.859-65.874-65.859-173.058 0-238.945l119.48-119.452 119.451 119.479c31.92 31.906 49.493 74.338 49.493 119.452 0 45.128-17.573 87.561-49.493 119.479-31.89 31.906-74.309 49.48-119.451 49.48zM252.867 158.906c-51.516 0-93.428 41.914-93.428 93.428s41.912 93.428 93.428 93.428c51.514 0 93.428-41.913 93.428-93.428s-41.914-93.428-93.428-93.428zM252.867 302.642c-27.736 0-50.308-22.571-50.308-50.308s22.571-50.307 50.308-50.307 50.307 22.57 50.307 50.307-22.57 50.308-50.307 50.308z" />
<glyph unicode="&#x7c;" d="M471.844 389.039h-230.903v40.157c0 24.764-15.392 40.137-40.157 40.137h-156.098c-24.332 0-44.686-14.059-44.686-40.137v-421.647c0-24.882 25.334-50.216 50.196-50.216h421.647c26.079 0 40.157 25.863 40.157 50.216v341.313c0 24.785-15.393 40.177-40.156 40.177zM42.588 439.215h158.196c8.353 0 10.040-1.686 10.040-10.020v-70.274h261.020c8.353 0 10.039-1.687 10.039-10.059v-50.176h-451.766v130.51c0 5.902 2.981 10.019 12.471 10.019zM471.844-12.55h-421.648c-8.255 0-20.079 11.844-20.079 20.099v261.020h451.766v-261.020c0-9.51-4.118-20.099-10.039-20.099zM376.039 127.549c13.177 10.177 21.805 25.96 21.805 43.843 0 30.647-24.941 55.588-55.608 55.588-30.589 0-55.49-24.941-55.49-55.588 0-17.883 8.628-33.646 21.745-43.823-21.922-7.804-40.334-22.745-52.49-42.196-12.156 19.432-30.568 34.373-52.51 42.177 13.176 10.177 21.804 25.96 21.804 43.843 0 30.647-24.94 55.588-55.608 55.588-30.627 0-55.529-24.941-55.529-55.588 0-17.883 8.628-33.646 21.766-43.843-38.961-13.843-67.451-50.451-68.078-93.765l30.117-0.432c0 0.078 0.020 0.137 0.020 0.216 0.686 38 33.451 70.079 71.705 70.079 37.393 0 68.197-29.021 71.256-65.53-0.098-1.471-0.49-2.843-0.51-4.333l1.020-0.020c0-0.059 0.020-0.138 0.020-0.196 0-0.079 0.020-0.138 0.020-0.216l14.529 0.216 14.529-0.216c0 0.078 0.020 0.137 0.020 0.216 0.687 38 33.432 70.079 71.667 70.079 38.353 0 71.157-32.079 71.784-70.079 0-0.060 0.020-0.138 0.020-0.196l30.117 0.393c-0.592 43.312-29.101 79.921-68.121 93.783zM169.686 196.862c14.079 0 25.49-11.412 25.49-25.471 0-14.020-11.411-25.49-25.49-25.49-14.039 0-25.411 11.471-25.411 25.49-0.001 14.059 11.371 25.471 25.411 25.471zM342.235 196.862c14.079 0 25.49-11.412 25.49-25.471 0-14.020-11.411-25.49-25.49-25.49-14 0-25.372 11.471-25.372 25.49 0 14.059 11.372 25.471 25.372 25.471z" />
<glyph unicode="&#x7d;" d="M453.373 437.039h-94.137v7.195c0 13.844-11.256 25.099-25.097 25.099h-156.276c-13.843 0-25.098-11.255-25.098-25.099v-7.195h-94.137c-13.843 0-25.098-11.255-25.098-25.099v-429.51c0-13.842 11.255-25.097 25.098-25.097h394.745c13.844 0 25.098 11.255 25.098 25.098v429.509c0 13.844-11.254 25.099-25.098 25.099zM182.882 439.215h146.237v-41.921h-146.237v41.921zM448.354-12.55h-384.707v419.471h89.118v-14.646c0-13.844 11.255-25.099 25.098-25.099h156.276c13.842 0 25.098 11.255 25.098 25.099v14.646h89.117v-419.471zM260.393 266.509l-21.295 21.295-108.098-108.079 108.96-108.981 21.296 21.295-72.158 72.176h194.902v30.118h-195.803z" />
<glyph unicode="&#x7e;" d="M398.235 41.151h-284.47c-62.726 0-113.765 51.030-113.765 113.745 0 62.206 50.176 112.902 112.176 113.755 13.961 67.54 73.471 116.864 143.824 116.864s129.862-49.323 143.823-116.863c62-0.853 112.177-51.549 112.177-113.756 0-62.715-51.039-113.745-113.765-113.745zM113.765 238.544c-46.118 0-83.647-37.52-83.647-83.647 0-46.108 37.529-83.628 83.647-83.628h284.471c46.117 0 83.646 37.52 83.646 83.628 0 46.128-37.529 83.647-83.646 83.647-3.177 0-6.334-0.206-9.412-0.568-4.020-0.451-8.020 0.666-11.137 3.176-3.157 2.5-5.157 6.157-5.607 10.157-6.413 59.342-56.335 104.087-116.080 104.087s-109.667-44.745-116.079-104.088c-0.451-4-2.451-7.657-5.588-10.157-3.157-2.52-7.157-3.745-11.157-3.176-3.078 0.363-6.215 0.569-9.411 0.569z" />
</font>
</defs>
</svg>
